<?xml version="1.0" encoding="UTF-8" standalone="no"?>
<!-- Created with Inkscape (http://www.inkscape.org/) -->

<svg
   xmlns:dc="http://purl.org/dc/elements/1.1/"
   xmlns:cc="http://creativecommons.org/ns#"
   xmlns:rdf="http://www.w3.org/1999/02/22-rdf-syntax-ns#"
   xmlns:svg="http://www.w3.org/2000/svg"
   xmlns="http://www.w3.org/2000/svg"
   xmlns:sodipodi="http://sodipodi.sourceforge.net/DTD/sodipodi-0.dtd"
   xmlns:inkscape="http://www.inkscape.org/namespaces/inkscape"
   id="svg2"
   version="1.1"
   inkscape:version="0.91 r13725"
   xml:space="preserve"
   width="500"
   height="373.14874"
   viewBox="0 0 500 373.14873"
   sodipodi:docname="logo_EDISU_bianco.svg"><metadata
     id="metadata8"><rdf:RDF><cc:Work
         rdf:about=""><dc:format>image/svg+xml</dc:format><dc:type
           rdf:resource="http://purl.org/dc/dcmitype/StillImage" /><dc:title></dc:title></cc:Work></rdf:RDF></metadata><defs
     id="defs6"><clipPath
       clipPathUnits="userSpaceOnUse"
       id="clipPath16"><path
         d="m 18.827,889.063 623.622,0 0,-870.236 -623.622,0 0,870.236 z"
         id="path18"
         inkscape:connector-curvature="0" /></clipPath></defs><sodipodi:namedview
     pagecolor="#ffffff"
     bordercolor="#666666"
     borderopacity="1"
     objecttolerance="10"
     gridtolerance="10"
     guidetolerance="10"
     inkscape:pageopacity="0"
     inkscape:pageshadow="2"
     inkscape:window-width="1920"
     inkscape:window-height="1016"
     id="namedview4"
     showgrid="false"
     fit-margin-top="0"
     fit-margin-left="0"
     fit-margin-right="0"
     fit-margin-bottom="0"
     inkscape:zoom="1.1763694"
     inkscape:cx="191.55167"
     inkscape:cy="163.01484"
     inkscape:window-x="56"
     inkscape:window-y="27"
     inkscape:window-maximized="0"
     inkscape:current-layer="g10" /><g
     id="g10"
     inkscape:groupmode="layer"
     inkscape:label="logo EDiSU_vettoriale"
     transform="matrix(1.25,0,0,-1.25,-240.54438,769.68387)"><g
       id="g12"
       transform="translate(51.2,0)"><g
         id="g14"
         clip-path="url(#clipPath16)"><g
           id="g20"
           transform="translate(341.4805,582.8003)"><path
             d="m 0,0 c 64.144,0 116.144,-52.075 116.144,-116.313 0,-64.237 -52,-116.312 -116.144,-116.312 -64.144,0 -116.144,52.075 -116.144,116.312 C -116.144,-52.075 -64.144,0 0,0"
             style="fill:#00a650;fill-opacity:1;fill-rule:evenodd;stroke:none"
             id="path22"
             inkscape:connector-curvature="0" /></g><g
           id="g24"
           transform="translate(341.4805,582.8003)"><path
             d="m 0,0 c 64.144,0 116.144,-52.075 116.144,-116.313 0,-64.237 -52,-116.312 -116.144,-116.312 -64.144,0 -116.144,52.075 -116.144,116.312 C -116.144,-52.075 -64.144,0 0,0 Z"
             style="fill:none;stroke:#231f20;stroke-width:3.17199993;stroke-linecap:butt;stroke-linejoin:miter;stroke-miterlimit:22.9260006;stroke-dasharray:none;stroke-opacity:1"
             id="path26"
             inkscape:connector-curvature="0" /></g><g
           id="g28"
           transform="translate(382.8467,506.9834)"><path
             d="m 0,0 c -8.439,-3.494 -13.941,-11.728 -13.941,-20.857 0,-12.463 10.116,-22.577 22.582,-22.577 2.965,10e-4 5.788,0.532 8.528,1.668 l 0.113,0.051 c 3.873,1.602 8.028,2.428 12.22,2.428 17.628,0 31.936,-14.303 31.936,-31.928 0,-17.624 -14.308,-31.929 -31.936,-31.929 -12.917,0 -24.562,7.782 -29.502,19.711 l -0.06,0.135 c -3.494,8.437 -11.727,13.938 -20.862,13.938 -12.464,0 -22.581,-10.116 -22.581,-22.577 0,-2.963 0.585,-5.9 1.722,-8.639 l 0.012,-0.052 c 1.602,-3.874 2.416,-7.974 2.416,-12.166 0,-17.626 -14.306,-31.929 -31.935,-31.929 -17.627,0 -31.935,14.303 -31.935,31.929 0,12.914 7.781,24.556 19.715,29.496 l 0.05,0.032 c 8.437,3.492 13.888,11.696 13.888,20.828 0,12.462 -10.115,22.575 -22.581,22.575 -2.965,0 -5.829,-0.549 -8.569,-1.685 l -0.072,-0.03 c -3.875,-1.607 -8.027,-2.435 -12.221,-2.435 -17.628,10e-4 -31.935,14.305 -31.935,31.93 0,17.624 14.307,31.928 31.935,31.928 12.917,0 24.561,-7.779 29.505,-19.709 3.495,-8.437 11.728,-13.939 20.861,-13.939 12.464,0 22.582,10.116 22.582,22.578 0,2.966 -0.581,5.902 -1.719,8.64 -1.605,3.876 -2.431,8.025 -2.431,12.219 0,17.624 14.307,31.928 31.936,31.928 C 5.35,61.563 19.654,47.258 19.654,29.634 19.654,16.72 11.876,5.077 -0.057,0.136 L 0,0 Z"
             style="fill:#ffffff;fill-opacity:1;fill-rule:evenodd;stroke:none"
             id="path30"
             inkscape:connector-curvature="0" /></g><g
           id="g32"
           transform="translate(382.8467,506.9834)"><path
             d="m 0,0 c -8.439,-3.494 -13.941,-11.728 -13.941,-20.857 0,-12.463 10.116,-22.577 22.582,-22.577 2.965,10e-4 5.788,0.532 8.528,1.668 l 0.113,0.051 c 3.873,1.602 8.028,2.428 12.22,2.428 17.628,0 31.936,-14.303 31.936,-31.928 0,-17.624 -14.308,-31.929 -31.936,-31.929 -12.917,0 -24.562,7.782 -29.502,19.711 l -0.06,0.135 c -3.494,8.437 -11.727,13.938 -20.862,13.938 -12.464,0 -22.581,-10.116 -22.581,-22.577 0,-2.963 0.585,-5.9 1.722,-8.639 l 0.012,-0.052 c 1.602,-3.874 2.416,-7.974 2.416,-12.166 0,-17.626 -14.306,-31.929 -31.935,-31.929 -17.627,0 -31.935,14.303 -31.935,31.929 0,12.914 7.781,24.556 19.715,29.496 l 0.05,0.032 c 8.437,3.492 13.888,11.696 13.888,20.828 0,12.462 -10.115,22.575 -22.581,22.575 -2.965,0 -5.829,-0.549 -8.569,-1.685 l -0.072,-0.03 c -3.875,-1.607 -8.027,-2.435 -12.221,-2.435 -17.628,10e-4 -31.935,14.305 -31.935,31.93 0,17.624 14.307,31.928 31.935,31.928 12.917,0 24.561,-7.779 29.505,-19.709 3.495,-8.437 11.728,-13.939 20.861,-13.939 12.464,0 22.582,10.116 22.582,22.578 0,2.966 -0.581,5.902 -1.719,8.64 -1.605,3.876 -2.431,8.025 -2.431,12.219 0,17.624 14.307,31.928 31.936,31.928 C 5.35,61.563 19.654,47.258 19.654,29.634 19.654,16.72 11.876,5.077 -0.057,0.136 L 0,0 Z"
             style="fill:none;stroke:#231f20;stroke-width:3.17199993;stroke-linecap:butt;stroke-linejoin:miter;stroke-miterlimit:22.9260006;stroke-dasharray:none;stroke-opacity:1"
             id="path34"
             inkscape:connector-curvature="0" /></g><g
           id="g36"
           transform="translate(359.9043,511.9312)"><path
             d="m 0,0 c -3.912,0.444 -7.206,-6.676 -9.294,-7.182 -5.397,-1.308 4.357,6.835 4.658,7.656 -3.365,1.029 -7.919,-5.754 -10.146,-8.004 -1.433,-1.448 -8.299,-9.303 -9.502,-9.42 l -0.044,2.909 12.832,13.059 c -3.644,1.188 -11.136,-10.819 -12.839,-10.92 -1.9,2.815 4.438,7.654 6.275,9.5 l -0.991,3.24 c -2.302,1.261 -10.896,1.376 -13.07,0.348 -0.392,-0.186 -2.992,-3.476 -3.8,-4.232 -1.098,-1.025 -3.654,-2.609 -3.504,-4.167 3.163,-1.522 6.991,8.609 10.24,6.776 0.598,-1.208 -2.41,-3.623 -3.393,-4.607 -2.841,-2.846 -3.217,-1.972 -1.335,-4.045 l -9.177,-9.196 0.278,-0.264 c 4.077,-0.415 8.92,10.486 12.586,8.448 -0.623,-2.895 -17.197,-14.334 -15.251,-18.177 0.963,-0.116 16.781,18.987 18.945,19.113 1.132,-2.968 -0.984,-3.89 -3.148,-6.031 -4.146,-4.101 -12.008,-11.655 -15.225,-15.387 -1.711,-1.985 -19.604,-20.953 -20.21,-20.863 l 1.38,3.072 c -1.81,-1.022 -6.502,-7.885 -6.411,-10.211 5.386,2.852 41.629,44.373 44.197,44.114 1.216,-1.991 -3.047,-5.237 -4.539,-6.624 -5.23,-4.863 -12.527,-12.718 -17.397,-18.055 -3.704,-4.059 -7.791,-8.001 -11.585,-12.047 -2.215,-2.363 -11.544,-10.449 -10.483,-12.262 2.672,-0.371 41.454,44.165 44.355,44.306 1.87,-2.507 -8.319,-10.995 -10.351,-13.134 -3.718,-3.913 -8.347,-8.213 -11.697,-12.205 -2.843,-3.387 -8.64,-9.212 -11.945,-12.226 l -8.903,-9.085 c -1.57,-2.209 -1.961,-1.283 -1.639,-3.75 3.11,1.793 11.065,11.462 14.765,14.523 4.149,3.433 10.106,10.651 14.147,14.852 4.848,5.042 9.51,9.89 14.24,15.046 2.326,2.538 1.602,-1.251 4.286,1.873 0.901,1.051 2.551,2.686 3.591,3.661 1.251,1.174 6.281,6.578 7.37,6.79 1.171,-2.671 -4.771,-7.388 -6.677,-9.091 -0.956,-0.855 -3.068,-3.161 -3.916,-4.138 -1.494,-1.721 -3.903,-2.197 -2.125,-4.776 1.263,0.143 11.056,13.568 13.518,12.897 0.611,-5.332 -16.992,-15.518 -14.052,-19.456 l 13.384,14.592 c 3.622,-3.321 -12.713,-14.799 -14.284,-17.958 -1.087,-2.185 0.222,-2.387 -1.469,-4.168 -0.785,-0.826 -2.223,-1.807 -2.366,-2.887 l 3.44,-1.316 c 2.357,2.898 9.681,10.305 13.01,13.742 1.035,1.069 4.724,3.537 3.045,5.173 l -15.252,-15.371 c -1.393,2.434 10.648,13.758 12.768,16.08 2.296,2.512 2.041,0.791 2.862,4.64 0.888,4.162 9.838,8.901 9.713,11.821 -2.889,0.64 -6.747,-6.941 -9.495,-7.912 -2.459,3.406 6.132,6.154 5.967,10.239 -0.15,3.72 7.642,7.497 7.196,9.391 C 0.84,0.549 -4.92,-10.291 -6.581,-8.433 -8.251,-7.02 -0.721,-2.005 0,0 m -24.333,-1.034 c -3.171,0.877 -7.557,-5.698 -9.547,-7.812 3.433,-0.695 3.516,0.46 5.52,2.808 1.366,1.6 3.886,2.864 4.027,5.004 m -2.608,-7.131 c 1.546,-0.269 2.903,1.714 3.885,2.725 1.251,1.287 2.947,2.273 2.751,4.201 -2.483,0.656 -2.467,-0.902 -4.08,-2.607 -1.185,-1.251 -3.438,-2.582 -2.556,-4.319 m 16.582,-2.194 c 1.21,-0.157 1.898,0.915 1.5,2.026 -1.57,0.631 -1.748,-0.754 -1.5,-2.026 m -13.99,-11.767 c 0.195,4.317 3.073,5.135 5.485,7.935 1.285,1.49 5.173,6.266 6.829,6.33 l 0.261,-2.208 c -2.908,-2.252 -6.534,-6.987 -9.17,-9.288 -1.449,-1.263 -1.704,-2.648 -3.405,-2.769 m 13.987,5.853 c -0.952,2.748 3.474,7.885 4.971,6.337 1.078,-1.115 -1.071,-3.096 -1.868,-3.785 -0.999,-0.862 -1.751,-2.61 -3.103,-2.552"
             style="fill:#231f20;fill-opacity:1;fill-rule:evenodd;stroke:none"
             id="path38"
             inkscape:connector-curvature="0" /></g><g
           id="g40"
           transform="translate(324.6001,451.1084)"><path
             d="m 0,0 c -2.074,0.104 -6.059,-4.284 -7.777,-5.186 -2.599,-1.363 -2.348,3.564 -3.969,7.95 -1.508,4.085 -5.366,-2.3 -6.735,-3.656 -2.2,-2.178 -11.878,-11.485 -13.036,-13.016 -2.273,-3.001 -4.079,-3.951 -6.717,-6.44 -1.895,-1.788 -4.689,-5.044 -6.748,-6.411 -0.551,-0.367 -7.001,-5.641 -7.244,-5.859 l 3.195,-5.333 c 2.875,0.621 2.138,5.755 7.234,7.42 1.078,1.706 -0.681,1.02 1.714,3.165 1.823,1.632 6.136,6.797 7.637,6.941 l -1.496,-11.143 c 3.485,-2.42 1.836,-3.076 5.78,-2.613 2.821,0.331 -0.557,-2.239 4.652,1.666 2.223,-2.964 -2.726,-2.834 -2.369,-5.441 3.355,-1.786 7.689,3.33 9.588,5.598 1.378,1.645 7.567,6.572 7.128,8.414 -2.874,0.798 -9.862,-10.894 -13.07,-11.44 -0.904,4.468 11.529,11.535 11.287,14.779 -3.029,1.162 -9.59,-10.77 -12.258,-10.326 -1.286,3.587 10.042,10.345 12.068,15.163 1.496,3.559 1.269,7.037 4.346,9.094 C -5.527,-5.829 0.109,-1.133 0,0 m -31.028,-17.673 c 1.992,-0.243 1.13,-0.105 3.8,2.707 2.744,2.89 9.175,7.808 8.756,10.554 -1.759,0.25 -2.688,-1.534 -3.803,-2.627 -1.152,-1.128 -2.199,-2.232 -3.331,-3.377 -1.565,-1.578 -6.636,-4.668 -5.422,-7.257 m 3.606,-6.491 c -0.732,2.21 5.643,6.902 8.001,9.437 1.062,1.142 0.499,1.419 1.926,2.639 1.31,1.12 0.956,1.247 1.828,2.47 0.885,1.24 3.89,3.639 4.977,1.414 -0.429,-1.035 -6.881,-7.255 -8.148,-8.441 -3.034,-2.834 -6.306,-8.095 -8.584,-7.519 m -3.674,4.143 c 1.229,-1.565 2.901,-1.405 4.037,0.055 2.277,2.924 9.081,8.056 8.741,10.249 -1.633,0.266 -2.361,-0.802 -3.373,-1.927 l -5.989,-5.832 c -0.575,-0.414 -3.226,-2.254 -3.416,-2.545 m 6.295,-7.168 c -0.824,1.41 0.58,2.393 1.426,3.266 2.484,2.566 6.286,7.623 8.61,7.282 0.077,-1.219 -3.436,-4.762 -4.405,-5.85 -1.064,-1.196 -4.103,-4.946 -5.631,-4.698 m -5.235,3.294 c -0.724,1.464 0.775,1.64 1.411,1.502 0.65,-1.265 -0.35,-1.842 -1.411,-1.502 m 1.907,-1.779 c -0.73,-0.447 -1.852,-0.784 -1.849,-1.871 0.003,-1.175 1.132,-1.582 2.125,-1.052 2.248,1.2 2.361,4.538 -0.276,2.923 m -21.666,-8.484 c -0.274,1.903 0.607,1.675 1.906,2.789 1.009,0.866 1.518,1.835 2.88,2.104 -0.242,-1.148 -1.199,-2.102 -2.059,-2.924 -1.183,-1.128 -1.221,-2.136 -2.727,-1.969 m 22.784,3.34 c -1.042,-0.633 -2.715,-3.012 -3.879,-2.249 -1.467,0.96 0.954,3.27 2.132,3.508 1.693,0.344 0.865,-0.724 2.4,0.284 2.531,1.662 2.694,-1.041 1.402,-1.954 -1.226,-0.867 -1.222,-0.187 -2.055,0.411"
             style="fill:#231f20;fill-opacity:1;fill-rule:evenodd;stroke:none"
             id="path42"
             inkscape:connector-curvature="0" /></g><g
           id="g44"
           transform="translate(416.8213,504.2441)"><path
             d="m 0,0 1.121,0.601 c -2.368,4.588 -3.387,-3.143 -6.892,-2.474 -0.755,1.217 0.339,2.149 1.149,2.89 0.666,0.611 1.574,1.778 2.303,2.26 -0.282,2.201 -0.781,2.505 -1.919,0.637 -1.388,-1.593 -5.24,-7.818 -7.152,-4.889 -0.553,2.667 5.072,3.666 5.828,7.048 -0.751,0.942 -5.72,2.153 -6.963,-0.099 -0.649,-1.174 -2.021,-5.716 -2.639,-7.219 -2.018,0.297 -3.999,3.806 -7.164,2.517 -3.094,-1.259 -6.546,-7.705 -10.405,-10.287 -1.569,-1.05 -3.904,-3.45 -5.383,-4.814 -1.749,-1.615 -0.56,-2.546 -1.778,-3.592 -0.674,-0.578 -3.06,-1.25 -3.587,-0.465 -0.945,1.406 1.103,0.83 -1.345,1.484 -2.993,0.797 -0.942,-2.049 -2.716,-4.384 -1.444,-1.901 -10.484,-8.705 -8.765,-10.887 1.585,-0.005 8.014,9.173 10.397,9.229 0.265,-4.464 -10.124,-8.801 -9.192,-12.57 2.74,-0.107 8.37,10.163 10.508,8.803 1.402,-2.56 -11.204,-9.868 -8.36,-11.834 1.497,-0.415 8.485,9.9 10.341,9.242 1.844,-2.395 -8.371,-9.024 -8.25,-11.145 1.7,-2.013 4.023,2.331 5.266,3.796 1.286,1.513 4.571,4.182 4.997,5.137 l -1.629,3.319 0.367,0.181 c 0.872,1.707 3.569,2.181 3.864,4.12 0.149,0.978 0.499,2.111 1.669,2.434 1.717,0.473 1.19,-1.086 1.748,-1.896 3.744,1.968 6.636,4.436 11.159,5.899 2.692,0.87 9.798,3.496 11.906,4.898 l 3.73,7.968 c 2.64,-0.467 3.931,-3.221 6.303,-4.23 0.726,-0.309 8.112,0.811 8.628,1.288 L 2.161,-0.165 C 0.654,-1.25 1.084,-4.666 -1.798,-3.512 -2.229,-2.021 -1.334,-0.551 0,0 m -11.071,2.525 c -1.062,1.991 2.018,4.326 2.921,3.445 0.766,-0.747 -1.617,-3.802 -2.921,-3.445 m -13.77,-5.988 c 0.249,-0.682 1.148,-1.441 1.755,-1.634 1.372,0.259 1.925,1.263 1.748,2.712 -0.661,0.198 -0.887,0.133 -1.342,0.298 -0.793,0.287 -0.275,0.335 -1.309,0.589 -0.609,-0.671 -1.293,-0.762 -0.852,-1.965 m 11.611,1.849 c -1.585,-0.32 -2.795,-3.161 -4.258,-4.648 -0.336,-0.341 -2.259,-2.158 -2.332,-2.263 -0.857,-1.243 -0.4,-2.939 1.346,-2.195 0.286,0.121 3.991,3.928 4.484,4.455 0.479,0.511 2.061,1.911 2.268,2.344 0.643,1.342 -0.371,2.538 -1.508,2.307 m -8.92,-6.139 c -0.881,2.098 2.162,4.588 3.828,3.83 0.353,-1.692 -1.999,-4.542 -3.828,-3.83 m 23.082,2.07 c -0.17,1.651 0.799,2.4 2.335,2.359 0.412,-1.964 -0.3,-3.01 -2.335,-2.359 m -13.286,-2.195 c -0.642,1.603 0.708,2.806 2.404,2.662 0.042,-1.408 -0.997,-2.803 -2.404,-2.662 m -14.429,1.867 c -1.222,-0.391 -4.954,-4.13 -5.823,-5.277 -1.113,-1.467 -1.879,-1.17 -2.773,-2.607 -0.56,-0.901 -1.707,-3.671 0.559,-2.989 l 8.143,8.263 c 0.861,0.804 2.06,3.305 -0.106,2.61 M -33.4,-19.238 c 2.214,0.033 1.888,0.526 3.109,1.876 0.78,0.862 1.587,1.566 2.382,2.466 2.135,2.417 4.47,3.761 4.164,5.594 -2.345,0.693 -5.515,-4.47 -7.814,-6.519 -1.386,-1.236 -1.864,-1.344 -1.841,-3.417 m 15.542,6.367 c -0.226,1.695 1.042,2.313 2.52,2.239 0.418,-1.886 -0.864,-3.15 -2.52,-2.239 m -7.735,-3.083 c -0.21,1.016 2.073,4.784 4.218,3.614 0.385,-1.943 -2.45,-4.674 -4.218,-3.614 m -18.001,-9.226 c 1.711,-0.217 2.385,1.306 3.366,2.454 1.232,1.439 1.841,1.939 3.128,3.201 l -0.168,1.71 c -2.501,-0.052 -7.118,-4.65 -6.326,-7.365 m -1.541,3.023 c -0.462,0.873 -0.265,1.279 0.253,2.108 1.492,-0.22 1.843,-0.995 1.118,-2.34 l -1.371,0.232 z"
             style="fill:#231f20;fill-opacity:1;fill-rule:evenodd;stroke:none"
             id="path46"
             inkscape:connector-curvature="0" /></g><g
           id="g48"
           transform="translate(329.3599,445.7637)"><path
             d="m 0,0 c -0.927,-1.488 -2.491,-3.172 -3.734,-5.179 -2.422,-3.907 1.037,-1.337 2.526,0.752 1.556,2.184 6.32,7.079 8.439,8.757 2.485,1.968 5.948,6.468 8.607,8.844 1.536,1.372 8.665,7.916 6.886,9.652 L 0.473,0.03 0.127,0.368 C 1.453,7.688 23.056,22.088 22.419,26.892 19.634,26.626 4.869,7.681 2.347,7.681 2.393,12.896 23.235,28.261 21.014,31.131 19.721,31.202 7.483,17.375 5.221,15.456 0.355,11.327 2.416,9.844 -1.443,6.283 -2.846,4.988 -8.879,-0.111 -8.222,-1.766 l 7.837,5.838 C -0.207,3.453 -0.211,0.821 0,0"
             style="fill:#231f20;fill-opacity:1;fill-rule:evenodd;stroke:none"
             id="path50"
             inkscape:connector-curvature="0" /></g><g
           id="g52"
           transform="translate(290.5806,437.7158)"><path
             d="M 0,0 C 1.653,0.95 17.933,17.907 20.542,20.666 24.021,24.344 38.8,39.227 39.818,42.771 38.198,42.411 21.072,24.218 18.789,21.603 15.547,17.887 11.722,14.402 8.388,10.784 6.803,9.065 -2.164,1.986 0,0"
             style="fill:#231f20;fill-opacity:1;fill-rule:evenodd;stroke:none"
             id="path54"
             inkscape:connector-curvature="0" /></g><g
           id="g56"
           transform="translate(395.5801,445.5879)"><path
             d="m 0,0 c 0.467,0.866 0.426,2.151 -0.867,1.76 -0.521,-0.157 -1.33,-1.274 -1.788,-1.755 -4.776,-5.03 -11.379,-12.846 -16.498,-17.086 -1.178,-0.976 -2.315,-2.246 -3.3,-3.418 -0.825,-0.981 -3.236,-2.693 -3.563,-3.178 -0.575,-0.852 -0.222,-1.952 0.887,-1.674 1.398,0.351 10.932,10.642 11.935,11.713 C -10.985,-11.279 -0.975,-1.808 0,0"
             style="fill:#231f20;fill-opacity:1;fill-rule:evenodd;stroke:none"
             id="path58"
             inkscape:connector-curvature="0" /></g><g
           id="g60"
           transform="translate(353.0352,463.6548)"><path
             d="m 0,0 c -1.15,0.067 -5.582,-5.432 -6.784,-6.58 -2.313,-2.21 -4.503,-4.606 -6.828,-6.865 -2.203,-2.14 -4.714,-4.667 -6.787,-6.91 -2.42,-2.617 -7.489,-5.734 -5.928,-6.705 1.761,-1.095 3.047,1.604 4.079,2.649 1.016,1.031 2.368,2.282 3.439,3.269 2.093,1.928 4.63,4.825 6.726,6.974 C -9.981,-12.015 1.447,-1.957 0,0"
             style="fill:#231f20;fill-opacity:1;fill-rule:evenodd;stroke:none"
             id="path62"
             inkscape:connector-curvature="0" /></g><g
           id="g64"
           transform="translate(371.3086,426.6904)"><path
             d="m 0,0 c 0.314,0.034 17.117,16.598 18.884,18.669 0.888,1.042 6.73,6.038 4.776,7.035 -1.049,0.535 -5.344,-5.113 -6.237,-6.107 L 4.817,6.957 C 3.587,5.926 2.829,4.952 1.463,3.87 0.266,2.921 -1.275,1.556 0,0"
             style="fill:#231f20;fill-opacity:1;fill-rule:evenodd;stroke:none"
             id="path66"
             inkscape:connector-curvature="0" /></g><g
           id="g68"
           transform="translate(394.3086,440.3184)"><path
             d="m 0,0 c -1.462,0.418 -9.238,-9.15 -11.543,-11.43 -1.806,-1.783 -4.354,-4.005 -5.934,-5.881 -0.795,-0.945 -6.018,-4.902 -4.8,-6.054 1.292,-1.224 10.521,9.431 11.899,10.767 C -8.381,-10.661 0.79,-2.476 0,0"
             style="fill:#231f20;fill-opacity:1;fill-rule:evenodd;stroke:none"
             id="path70"
             inkscape:connector-curvature="0" /></g><g
           id="g72"
           transform="translate(330.3979,435.7295)"><path
             d="m 0,0 c 1.955,-1.532 5.129,3.424 6.704,4.987 1.88,1.87 4.099,4.385 6.01,6.073 2.168,1.914 6.363,6.723 9.046,9.219 1.11,1.031 2.814,2.027 1.741,3.491 -1.472,-0.004 -4.8,-4.669 -6.053,-5.895 C 15.474,15.942 13.535,13.807 11.573,11.933 9.691,10.136 7.46,7.896 5.711,5.984 4.606,4.772 0.011,1.143 0,0"
             style="fill:#231f20;fill-opacity:1;fill-rule:evenodd;stroke:none"
             id="path74"
             inkscape:connector-curvature="0" /></g><g
           id="g76"
           transform="translate(334.4268,434.626)"><path
             d="m 0,0 c 2.393,-0.988 4.584,2.528 6.021,4.089 1.685,1.83 3.537,3.68 5.333,5.406 1.785,1.717 3.436,3.84 5.187,5.55 1.8,1.757 4.949,3.524 4.301,6.066 C 19.293,20.896 16.429,17.252 15.365,15.953 13.273,13.401 0.17,1.217 0,0"
             style="fill:#231f20;fill-opacity:1;fill-rule:evenodd;stroke:none"
             id="path78"
             inkscape:connector-curvature="0" /></g><g
           id="g80"
           transform="translate(377.3447,472.5044)"><path
             d="m 0,0 c -0.474,-1.18 -0.305,-1.37 -1.466,-2.369 -1.148,-0.989 -3.192,-3.833 -5.464,-5.804 -3.136,-2.721 -0.724,-3.284 0.493,-2.13 0.812,0.768 2.706,3.104 3.47,4.088 0.765,0.985 2.644,3.102 3.655,3.858 0.976,0.729 2.063,0.343 1.9,-0.816 -0.115,-0.82 -1.14,-1.511 -1.668,-2.103 -2.802,-3.139 -7.182,-6.144 -6.666,-8.079 2.011,-1.04 3.505,2.528 5.305,4.075 1.556,1.338 2.999,3.531 4.812,5.189 C 3.901,-3.166 0.809,-0.393 0,0"
             style="fill:#231f20;fill-opacity:1;fill-rule:evenodd;stroke:none"
             id="path82"
             inkscape:connector-curvature="0" /></g><g
           id="g84"
           transform="translate(375.3369,437.4023)"><path
             d="m 0,0 c 2.131,-0.496 0.283,1.121 3.177,1.353 1.202,0.095 1.541,1.125 2.424,2.154 1.326,1.547 3.658,3.597 4.681,4.995 1.06,1.446 3.284,3.67 4.616,5.054 1.382,1.434 4.423,3.137 3.704,5.316 -2.171,0.044 -3.773,-3.098 -5.148,-4.401 C 12.522,13.587 4.108,5.052 3.933,4.654 2.669,1.787 3.898,3.418 1.751,2.55 0.807,2.168 -0.101,0.943 0,0"
             style="fill:#231f20;fill-opacity:1;fill-rule:evenodd;stroke:none"
             id="path86"
             inkscape:connector-curvature="0" /></g><g
           id="g88"
           transform="translate(388.4482,426.3086)"><path
             d="M 0,0 C -0.075,1.122 1.41,3.435 2.402,3.587 L 2.916,1.611 C 4.099,2.098 5.623,3.821 5.082,5.116 3.706,5.5 4.231,5.159 3.35,4.842 1.707,4.249 3.245,5.045 1.854,4.872 0.91,4.756 0.049,3.444 -0.502,2.771 c -2.701,-3.297 -4.144,-4.033 -5.795,-6.018 -0.4,-0.482 -0.726,-0.663 -1.235,-1.167 -3.568,-3.539 -7.866,-6.543 -2.751,-6.059 1.572,2.756 1.878,2.695 3.867,4.92 1.068,1.197 3.1,3.84 4.876,4.155 l 0.38,-1.503 c 1.531,1.517 2.606,1.008 3.156,2.183 L 0,0 Z"
             style="fill:#231f20;fill-opacity:1;fill-rule:evenodd;stroke:none"
             id="path90"
             inkscape:connector-curvature="0" /></g><g
           id="g92"
           transform="translate(384.1953,416.1855)"><path
             d="M 0,0 C -1.118,2.197 1.577,1.706 2.726,6.485 2.072,6.399 -4.621,-0.261 -4.682,-0.96 c 2.134,-0.896 4.253,0.66 5.441,-1.59 l 2.586,1.339 C 2.982,1.185 2.979,3.186 5.775,3.608 7.153,3.814 10.057,5.296 9.286,7.094 7.862,7.931 7.423,6.506 6.47,5.651 4.847,5.323 3.706,6.595 2.622,3.509 2.127,2.098 2.316,-0.1 0,0"
             style="fill:#231f20;fill-opacity:1;fill-rule:evenodd;stroke:none"
             id="path94"
             inkscape:connector-curvature="0" /></g><g
           id="g96"
           transform="translate(353.2949,435.2402)"><path
             d="M 0,0 C -0.075,2.811 6.804,5.564 5.613,7.969 4.204,8.356 1.846,5.05 0.875,3.975 -0.055,2.944 -3.14,0.44 -3.506,-0.662 -2.666,-1.9 -1.582,-1.456 0.048,-2.141 1.488,-2.746 2.8,-3.001 3.794,-1.609 4.768,-0.247 7.745,3.222 7.016,4.592 4.395,4.775 2.96,-1.782 0,0"
             style="fill:#231f20;fill-opacity:1;fill-rule:evenodd;stroke:none"
             id="path98"
             inkscape:connector-curvature="0" /></g><g
           id="g100"
           transform="translate(329.4746,529.3286)"><path
             d="m 0,0 c -2.1,0.428 -3.734,-2.453 -5.005,-4.021 -1.268,-1.564 -7.737,-8.199 -9.034,-9.219 -0.84,-0.661 -4.508,-3.846 -3.516,-4.873 0.98,-1.015 8.084,7.173 9.217,8.307 C -6.805,-8.272 -0.01,-1.596 0,0"
             style="fill:#231f20;fill-opacity:1;fill-rule:evenodd;stroke:none"
             id="path102"
             inkscape:connector-curvature="0" /></g><g
           id="g104"
           transform="translate(323.5225,513.145)"><path
             d="m 0,0 c 2.547,-0.299 7.071,5.294 8.786,7.024 1.346,1.359 7.498,6.972 7.721,8.169 l -2.983,0.028 -3.07,-4.231 C 9.341,9.75 7.89,8.747 6.701,7.49 5.498,6.216 4.364,5.051 3.163,3.78 2.323,2.891 -0.183,1.404 0,0"
             style="fill:#231f20;fill-opacity:1;fill-rule:evenodd;stroke:none"
             id="path106"
             inkscape:connector-curvature="0" /></g><g
           id="g108"
           transform="translate(339.1621,433.7168)"><path
             d="m 0,0 c 2.145,-0.557 7.09,5.854 8.726,7.494 2.775,2.783 5.633,5.48 8.526,8.172 l -0.687,1.43 C 15.342,17.078 9.364,10.137 7.982,8.772 6.548,7.355 5.245,5.815 3.718,4.445 2.603,3.445 -0.547,1.433 0,0"
             style="fill:#231f20;fill-opacity:1;fill-rule:evenodd;stroke:none"
             id="path110"
             inkscape:connector-curvature="0" /></g><g
           id="g112"
           transform="translate(317.2769,512.7773)"><path
             d="m 0,0 c 2.164,-1.123 3.568,1.35 5.082,2.831 2.438,2.388 6.425,6.139 8.64,8.542 1.414,1.535 2.402,3.019 3.987,4.4 C 15.31,16.884 14.358,14.13 12.74,12.627 10.769,10.796 0.245,0.554 0,0"
             style="fill:#231f20;fill-opacity:1;fill-rule:evenodd;stroke:none"
             id="path114"
             inkscape:connector-curvature="0" /></g><g
           id="g116"
           transform="translate(330.8613,514.8608)"><path
             d="m 0,0 c 1.93,-0.557 6.376,4.88 7.689,6.319 1.06,1.163 6.801,6.318 6.903,7.057 C 10.814,14.052 11.297,11.988 6.563,7.43 5.34,6.252 4.083,5.048 2.934,3.818 1.894,2.707 -0.416,1.274 0,0"
             style="fill:#231f20;fill-opacity:1;fill-rule:evenodd;stroke:none"
             id="path118"
             inkscape:connector-curvature="0" /></g><g
           id="g120"
           transform="translate(343.9697,433.9912)"><path
             d="m 0,0 c 2.181,-1.161 5.022,3.081 7.81,5.738 1.002,0.955 2.767,2.477 3.585,3.405 1.177,1.338 3.318,2.529 1.973,4.241 C 11.95,13.511 10.81,11.135 9.821,10.169 8.688,9.063 7.666,7.939 6.491,6.806 5.258,5.616 4.24,4.392 3.066,3.232 2.232,2.41 -0.127,1.165 0,0"
             style="fill:#231f20;fill-opacity:1;fill-rule:evenodd;stroke:none"
             id="path122"
             inkscape:connector-curvature="0" /></g><g
           id="g124"
           transform="translate(379.6523,445.7773)"><path
             d="m 0,0 c 1.524,-0.502 3.932,3.672 6.695,6.396 l 4.942,4.985 c 0.901,0.802 1.035,1.069 0.738,2.291 C 10.66,13.899 9.74,12.043 8.67,10.854 7.672,9.744 6.39,8.555 5.345,7.465 4.209,6.279 3.32,5.207 2.014,4.092 0.713,2.983 -0.564,1.885 0,0"
             style="fill:#231f20;fill-opacity:1;fill-rule:evenodd;stroke:none"
             id="path126"
             inkscape:connector-curvature="0" /></g><g
           id="g128"
           transform="translate(337.8691,515.1938)"><path
             d="m 0,0 c 1.482,1.023 4.792,5.122 6.273,6.558 1.09,1.055 5.952,5.298 6.21,6.118 C 8.903,12.939 10.166,12.898 4.917,7.382 3.98,6.398 2.686,4.991 1.715,4.135 -0.968,1.769 0.235,2.715 -1.268,0.853 L 0,0 Z"
             style="fill:#231f20;fill-opacity:1;fill-rule:evenodd;stroke:none"
             id="path130"
             inkscape:connector-curvature="0" /></g><g
           id="g132"
           transform="translate(313.8682,458.168)"><path
             d="m 0,0 c 1.909,0.137 0.954,0.351 2.32,1.317 0.848,0.6 1.21,0.873 1.975,1.521 3.922,3.321 4.039,6.137 7.071,6.912 3.979,1.017 5.083,8.789 -4.959,-2.319 C 5.376,6.291 4.163,4.745 3.066,3.783 1.971,2.82 0.191,1.643 0,0"
             style="fill:#231f20;fill-opacity:1;fill-rule:evenodd;stroke:none"
             id="path134"
             inkscape:connector-curvature="0" /></g><g
           id="g136"
           transform="translate(345.8223,515.0908)"><path
             d="m 0,0 c 1.607,-1.002 2.824,1.069 3.776,2.02 1.74,1.738 8.983,8.534 9.162,9.294 C 10.873,12.465 10.468,11.197 9.112,9.847 6.848,7.592 5.053,5.375 2.734,3.319 1.862,2.546 -0.242,1.204 0,0"
             style="fill:#231f20;fill-opacity:1;fill-rule:evenodd;stroke:none"
             id="path138"
             inkscape:connector-curvature="0" /></g><g
           id="g140"
           transform="translate(350.0928,514.2275)"><path
             d="m 0,0 c 2.249,-0.897 2.755,0.858 3.85,2.033 1.884,2.026 8.693,8.394 8.844,9.291 -1.779,1.543 -2.466,-0.384 -3.619,-1.63 L 2.772,3.107 C 1.84,2.224 -0.12,1.425 0,0"
             style="fill:#231f20;fill-opacity:1;fill-rule:evenodd;stroke:none"
             id="path142"
             inkscape:connector-curvature="0" /></g><g
           id="g144"
           transform="translate(304.9668,479.8931)"><path
             d="M 0,0 C 0.765,2.487 4.243,4.966 3.987,6.322 2.034,7.54 1.524,5.35 0.704,4.081 -0.138,2.779 -1.611,1.441 -1.78,-0.036 l 1.325,-0.461 C -1.049,-1.33 -1.126,-1.189 -0.759,-2.188 1.348,-2.505 5.572,0.817 5.042,2.813 3.12,4.048 2.704,0.545 0,0"
             style="fill:#231f20;fill-opacity:1;fill-rule:evenodd;stroke:none"
             id="path146"
             inkscape:connector-curvature="0" /></g><g
           id="g148"
           transform="translate(311.8174,516.7432)"><path
             d="m 0,0 c 1.493,-0.798 2.383,0.774 3.522,1.867 1.771,1.7 7.28,8.196 8.133,9.737 C 9.988,12.578 9.342,10.845 8.274,9.746 L 5.42,6.409 C 4.351,5.449 -0.41,1.325 0,0"
             style="fill:#231f20;fill-opacity:1;fill-rule:evenodd;stroke:none"
             id="path150"
             inkscape:connector-curvature="0" /></g><g
           id="g152"
           transform="translate(341.6504,516.2134)"><path
             d="m 0,0 c 1.441,-1.915 2.788,0.656 3.585,1.497 1.05,1.108 2.092,2.183 3.095,3.359 2.161,2.533 6.15,5.173 6.06,6.563 C 10.926,11.897 10.51,11.292 8.878,9.368 6.827,6.952 0.201,0.687 0,0"
             style="fill:#231f20;fill-opacity:1;fill-rule:evenodd;stroke:none"
             id="path154"
             inkscape:connector-curvature="0" /></g><g
           id="g156"
           transform="translate(378.9375,450.4053)"><path
             d="m 0,0 c 1.64,-0.074 1.878,1.284 3.052,2.612 l 5.563,5.72 c 2.27,2.499 2.402,2.174 1.954,3.329 C 9.063,12.137 8.227,10.587 7.239,9.453 6.304,8.378 5.361,7.43 4.418,6.362 0.872,2.353 -1.327,2.532 0,0"
             style="fill:#231f20;fill-opacity:1;fill-rule:evenodd;stroke:none"
             id="path158"
             inkscape:connector-curvature="0" /></g><g
           id="g160"
           transform="translate(355.1104,513.8428)"><path
             d="m 0,0 c 1.913,-0.625 2.308,0.303 3.406,1.59 0.972,1.139 1.784,1.757 2.822,2.83 0.954,0.986 1.846,1.847 2.752,2.889 2.221,2.552 2.205,1.26 2.708,2.849 C 9.922,12.426 8.565,9.156 5.58,6.137 4.58,5.125 3.408,4.355 2.534,3.277 1.984,2.598 1.8,2.305 1.098,1.746 0.229,1.053 0.067,1.225 0,0"
             style="fill:#231f20;fill-opacity:1;fill-rule:evenodd;stroke:none"
             id="path162"
             inkscape:connector-curvature="0" /></g><g
           id="g164"
           transform="translate(306.5693,413.4824)"><path
             d="m 0,0 c 1.64,-0.479 2.639,0.33 3.611,1.521 0.8,0.982 1.38,1.654 2.441,2.664 C 6.93,5.019 7.354,5.811 8.515,6.81 9.208,7.406 11.017,8.837 10.056,9.798 9.108,10.746 7.576,8.587 7.114,7.949 6.415,6.989 5.519,6.265 4.666,5.309 3.585,4.098 0.023,1.461 0,0"
             style="fill:#231f20;fill-opacity:1;fill-rule:evenodd;stroke:none"
             id="path166"
             inkscape:connector-curvature="0" /></g><g
           id="g168"
           transform="translate(376.71,453.8267)"><path
             d="M 0,0 C 1.881,-0.831 1.897,0.8 3.162,2.126 4.045,3.051 4.923,3.888 5.813,4.843 7.557,6.714 9.722,8.6 10.834,10.84 L 9.419,11.812 C 8.662,10.066 8.788,10.181 7.269,8.498 L 1.847,3.17 C 0.771,2.148 -0.471,1.659 0,0"
             style="fill:#231f20;fill-opacity:1;fill-rule:evenodd;stroke:none"
             id="path170"
             inkscape:connector-curvature="0" /></g><g
           id="g172"
           transform="translate(351.8887,486.1699)"><path
             d="M 0,0 C 1.885,-0.433 2.476,0.866 4.623,3.354 5.016,3.809 5.485,4.113 5.99,4.662 6.951,5.708 11.497,9.141 10.283,10.311 9.224,11.333 8.034,9.064 7.509,8.516 6.659,7.63 5.67,6.64 4.837,5.819 2.366,3.387 -0.062,1.767 0,0"
             style="fill:#231f20;fill-opacity:1;fill-rule:evenodd;stroke:none"
             id="path174"
             inkscape:connector-curvature="0" /></g><g
           id="g176"
           transform="translate(267.2456,497.2129)"><path
             d="M 0,0 C 1.274,0.063 1.794,0.733 2.504,1.725 3.332,2.88 3.67,2.981 4.602,3.923 5.413,4.743 5.899,5.477 6.727,6.106 6.86,6.207 8.722,6.889 6.762,8.203 4.649,7.467 2.482,3.853 0.542,2.847 -0.23,3.31 0.162,3.366 -0.572,4.175 -2.799,3.323 -1.534,2.75 -1.122,2.325 0.033,1.133 -1.509,1.588 0,0"
             style="fill:#231f20;fill-opacity:1;fill-rule:evenodd;stroke:none"
             id="path178"
             inkscape:connector-curvature="0" /></g><g
           id="g180"
           transform="translate(358.584,480.7471)"><path
             d="M 0,0 C 0.707,0.501 3.572,4.053 4.448,4.931 5.273,5.756 8.698,8.996 8.704,9.841 7.089,11.124 6.184,8.861 3.313,6.072 2.243,5.032 -1.1,1.977 -1.29,0.833 -0.545,0.024 -1.056,0.235 0,0"
             style="fill:#231f20;fill-opacity:1;fill-rule:evenodd;stroke:none"
             id="path182"
             inkscape:connector-curvature="0" /></g><g
           id="g184"
           transform="translate(359.7881,513.7969)"><path
             d="M 0,0 C 0.547,-0.365 1.312,-0.618 1.966,-0.238 L 10.519,8.577 8.782,9.525 C 7.3,8.148 6.088,6.202 4.543,4.691 3.803,3.967 0.2,0.563 0,0"
             style="fill:#231f20;fill-opacity:1;fill-rule:evenodd;stroke:none"
             id="path186"
             inkscape:connector-curvature="0" /></g><g
           id="g188"
           transform="translate(374.1758,456.3833)"><path
             d="M 0,0 C 2.005,-0.141 1.938,0.729 3.227,2.039 L 10.509,10.21 9.295,11.164 8.852,10.358 C 8.335,9.351 5.289,6.615 4.364,5.728 3.532,4.929 2.737,3.977 1.894,3.094 0.641,1.782 -0.294,1.985 0,0"
             style="fill:#231f20;fill-opacity:1;fill-rule:evenodd;stroke:none"
             id="path190"
             inkscape:connector-curvature="0" /></g><g
           id="g192"
           transform="translate(359.084,476.9795)"><path
             d="M 0,0 C 1.295,-0.048 1.967,1.227 2.916,2.217 3.71,3.045 4.372,3.942 5.142,4.814 6.366,6.2 9.901,8.543 9.34,10.439 8.247,10.643 8.491,10.466 7.636,9.57 L 3.979,5.717 C 1.579,3.204 -0.918,1.78 0,0"
             style="fill:#231f20;fill-opacity:1;fill-rule:evenodd;stroke:none"
             id="path194"
             inkscape:connector-curvature="0" /></g><g
           id="g196"
           transform="translate(288.0771,486.2812)"><path
             d="M 0,0 C 1.888,-0.741 2.971,2.746 6.27,6.056 7.241,7.03 7.865,7.053 7.926,8.449 6.68,9.761 6.315,9.287 5.348,8.052 4.574,7.064 3.883,6.738 3.217,5.62 2.517,4.443 -0.06,0.99 0,0"
             style="fill:#231f20;fill-opacity:1;fill-rule:evenodd;stroke:none"
             id="path198"
             inkscape:connector-curvature="0" /></g><g
           id="g200"
           transform="translate(289.8101,484.5259)"><path
             d="M 0,0 C 1.714,-1.801 1.455,-0.731 4.805,2.724 5.463,3.402 8.953,6.784 8.982,7.308 9.195,11.021 3.781,3.534 1.977,2.306 0.888,1.563 0.125,1.388 0,0"
             style="fill:#231f20;fill-opacity:1;fill-rule:evenodd;stroke:none"
             id="path202"
             inkscape:connector-curvature="0" /></g><g
           id="g204"
           transform="translate(355.1113,484.7944)"><path
             d="M 0,0 C 1.381,-1.923 2.408,0.584 5.131,3.408 6.795,5.134 9.682,7.517 9.625,8.812 7.959,9.124 7.439,8.224 6.481,7.158 L 2.092,2.419 C 1.198,1.473 0.235,1.165 0,0"
             style="fill:#231f20;fill-opacity:1;fill-rule:evenodd;stroke:none"
             id="path206"
             inkscape:connector-curvature="0" /></g><g
           id="g208"
           transform="translate(363.9707,512.2393)"><path
             d="M 0,0 C 1.73,-0.314 2.035,0.314 3.06,1.404 5.437,3.933 8.921,6.231 8.464,8.729 6.951,8.921 6.868,7.972 5.858,6.917 5.046,6.069 4.557,5.496 3.848,4.64 2.749,3.314 0.016,1.895 0,0"
             style="fill:#231f20;fill-opacity:1;fill-rule:evenodd;stroke:none"
             id="path210"
             inkscape:connector-curvature="0" /></g><g
           id="g212"
           transform="translate(301.186,489.9976)"><path
             d="m 0,0 c -1.459,0.532 -1.652,-0.238 -2.43,-1.259 -1.611,-2.114 -6.08,-4.85 -4.908,-6.062 1.35,-1.395 3.248,2.171 4.173,3.031 C -0.68,-1.979 0.523,-1.56 0,0"
             style="fill:#231f20;fill-opacity:1;fill-rule:evenodd;stroke:none"
             id="path214"
             inkscape:connector-curvature="0" /></g><g
           id="g216"
           transform="translate(282.5952,492.0913)"><path
             d="M 0,0 C 1.358,-0.483 1.444,-0.104 2.265,0.857 4.296,3.232 7.317,5.261 7.015,6.744 5.244,7.547 3.91,5.356 2.806,4.089 0.425,1.359 -0.349,1.946 0,0"
             style="fill:#231f20;fill-opacity:1;fill-rule:evenodd;stroke:none"
             id="path218"
             inkscape:connector-curvature="0" /></g><g
           id="g220"
           transform="translate(291.5425,496.7119)"><path
             d="m 0,0 c -1.256,0.23 -3.558,-2.86 -4.417,-3.875 -0.933,-1.102 -4.701,-3.052 -3.513,-4.239 0.513,-0.513 2.401,0.211 2.914,0.798 0.469,0.536 1.175,1.884 1.7,2.603 C -2.402,-3.462 -0.31,-1.289 0,0"
             style="fill:#231f20;fill-opacity:1;fill-rule:evenodd;stroke:none"
             id="path222"
             inkscape:connector-curvature="0" /></g><g
           id="g224"
           transform="translate(297.397,481.1426)"><path
             d="M 0,0 C 2.091,-1.147 2.865,1.061 3.933,2.329 5.057,3.664 7.066,3.99 6.447,6.146 4.81,6.792 3.738,4.8 2.691,3.569 1.571,2.252 -0.327,2.16 0,0"
             style="fill:#231f20;fill-opacity:1;fill-rule:evenodd;stroke:none"
             id="path226"
             inkscape:connector-curvature="0" /></g><g
           id="g228"
           transform="translate(316.1436,505.6963)"><path
             d="M 0,0 C 1.869,-0.447 2.643,1.451 4.111,2.619 5.115,3.418 7.537,4.974 7.731,6.203 6.005,6.739 4.154,5.442 3.097,4.179 2.066,2.949 -0.044,1.788 0,0"
             style="fill:#231f20;fill-opacity:1;fill-rule:evenodd;stroke:none"
             id="path230"
             inkscape:connector-curvature="0" /></g><g
           id="g232"
           transform="translate(276.6387,501.1753)"><path
             d="M 0,0 C 0.515,0.859 0.533,2.235 -0.806,1.658 -1.197,1.489 -2.234,0.246 -2.569,-0.11 -3.122,-0.698 -3.603,-1.373 -4.224,-1.941 -4.779,-2.451 -5.746,-2.958 -6.128,-3.565 -7.415,-5.613 -5.281,-5.889 -3.429,-3.556 -2.385,-2.242 -0.786,-1.315 0,0"
             style="fill:#231f20;fill-opacity:1;fill-rule:evenodd;stroke:none"
             id="path234"
             inkscape:connector-curvature="0" /></g><g
           id="g236"
           transform="translate(359.0361,455.519)"><path
             d="M 0,0 C 1.26,-0.452 2.151,1.736 3.207,2.755 4.29,3.801 5.725,4.976 4.925,6.752 3.846,6.941 2.538,4.734 1.703,3.995 0.297,2.748 -0.897,2.33 0,0"
             style="fill:#231f20;fill-opacity:1;fill-rule:evenodd;stroke:none"
             id="path238"
             inkscape:connector-curvature="0" /></g><g
           id="g240"
           transform="translate(358.2783,449.3564)"><path
             d="M 0,0 C 0.947,0.257 5.282,4.829 5.358,7.188 4.264,7.104 2.099,5.047 1.46,4.175 0.33,2.631 -1.399,2.03 0,0"
             style="fill:#231f20;fill-opacity:1;fill-rule:evenodd;stroke:none"
             id="path242"
             inkscape:connector-curvature="0" /></g><g
           id="g244"
           transform="translate(361.2441,504.1621)"><path
             d="M 0,0 C 2.207,0.053 6.968,3.876 6.583,5.756 4.574,6.078 3.951,4.658 2.732,3.399 1.5,2.125 -0.112,1.74 0,0"
             style="fill:#231f20;fill-opacity:1;fill-rule:evenodd;stroke:none"
             id="path246"
             inkscape:connector-curvature="0" /></g><g
           id="g248"
           transform="translate(311.6807,413.7314)"><path
             d="M 0,0 C 1.917,-1.488 5.686,3.11 5.327,4.746 3.936,5.637 3.094,4.098 2.18,2.967 1.43,2.039 -0.095,1.279 0,0"
             style="fill:#231f20;fill-opacity:1;fill-rule:evenodd;stroke:none"
             id="path250"
             inkscape:connector-curvature="0" /></g><g
           id="g252"
           transform="translate(275.3384,510.8984)"><path
             d="M 0,0 C -1.496,0.739 -2.161,-0.652 -3.185,-1.484 -3.98,-2.13 -5.687,-3.19 -4.239,-4.566 -2.902,-5.837 0.336,-1.257 0,0"
             style="fill:#231f20;fill-opacity:1;fill-rule:evenodd;stroke:none"
             id="path254"
             inkscape:connector-curvature="0" /></g><g
           id="g256"
           transform="translate(357.3506,462.9746)"><path
             d="M 0,0 C 1.047,2.399 3.794,3.541 3.027,5.651 1.896,5.47 -1.767,1.787 -2.177,0.949 -1.431,0.028 -1.267,0.036 0,0"
             style="fill:#231f20;fill-opacity:1;fill-rule:evenodd;stroke:none"
             id="path258"
             inkscape:connector-curvature="0" /></g><g
           id="g260"
           transform="translate(405.9727,424.8389)"><path
             d="m 0,0 c -2.212,1.634 -4.745,-2.561 -4.455,-3.342 0.6,-1.61 2.267,-0.424 2.932,0.473 C -0.724,-1.79 0.146,-1.221 0,0"
             style="fill:#231f20;fill-opacity:1;fill-rule:evenodd;stroke:none"
             id="path262"
             inkscape:connector-curvature="0" /></g><g
           id="g264"
           transform="translate(312.7544,522.5317)"><path
             d="M 0,0 C 1.669,0.059 1.44,1.069 2.44,2.124 3.187,2.913 4.012,3.426 4.593,4.59 2.396,4.965 -2.399,2.76 0,0"
             style="fill:#231f20;fill-opacity:1;fill-rule:evenodd;stroke:none"
             id="path266"
             inkscape:connector-curvature="0" /></g><g
           id="g268"
           transform="translate(354.3066,466.3306)"><path
             d="M 0,0 C 1.144,-0.02 2.047,1.572 2.833,2.411 3.469,3.09 5.728,4.491 4.571,5.56 3.939,6.143 2.06,4.16 1.572,3.676 0.42,2.534 -0.509,1.973 0,0"
             style="fill:#231f20;fill-opacity:1;fill-rule:evenodd;stroke:none"
             id="path270"
             inkscape:connector-curvature="0" /></g><g
           id="g272"
           transform="translate(358.1816,459.8066)"><path
             d="M 0,0 C 1.219,0.031 0.989,0.021 1.567,0.958 3.176,3.567 4.298,3.65 4.408,5.083 2.517,5.864 2.262,4.474 0.969,3.427 -0.573,2.178 -0.732,1.967 0,0"
             style="fill:#231f20;fill-opacity:1;fill-rule:evenodd;stroke:none"
             id="path274"
             inkscape:connector-curvature="0" /></g><g
           id="g276"
           transform="translate(356.1777,480.5991)"><path
             d="m 0,0 c -0.59,-0.011 -5.867,-4.695 -3.897,-5.808 0.563,-0.318 1.215,0.876 2.817,2.437 C -0.192,-2.506 1.165,-1.222 0,0"
             style="fill:#231f20;fill-opacity:1;fill-rule:evenodd;stroke:none"
             id="path278"
             inkscape:connector-curvature="0" /></g><g
           id="g280"
           transform="translate(353.4043,470.5874)"><path
             d="M 0,0 C 0.714,0.164 2.121,1.846 2.812,2.566 3.572,3.359 4.739,4.55 4.396,5.67 3.309,6.039 -1.655,1.863 0,0"
             style="fill:#231f20;fill-opacity:1;fill-rule:evenodd;stroke:none"
             id="path282"
             inkscape:connector-curvature="0" /></g><g
           id="g284"
           transform="translate(367.9561,510.5845)"><path
             d="M 0,0 C 2.009,-0.296 2.074,0.32 3.144,1.667 3.872,2.584 4.616,3.393 4.379,4.647 3.033,5.327 -0.111,1.624 0,0"
             style="fill:#231f20;fill-opacity:1;fill-rule:evenodd;stroke:none"
             id="path286"
             inkscape:connector-curvature="0" /></g><g
           id="g288"
           transform="translate(279.6738,494.5522)"><path
             d="M 0,0 C 1.646,-0.768 1.701,0.022 2.542,1.041 3.54,2.248 4.211,2.04 4.32,3.689 2.861,4.125 2.251,4.007 1.297,2.845 0.523,1.902 -0.352,1.359 0,0"
             style="fill:#231f20;fill-opacity:1;fill-rule:evenodd;stroke:none"
             id="path290"
             inkscape:connector-curvature="0" /></g><g
           id="g292"
           transform="translate(272.6152,511.4658)"><path
             d="M 0,0 C 1.582,0.522 2.991,2.762 2.897,4.431 1.101,4.791 0.817,4.249 0.005,2.87 -0.746,1.596 -1.304,0.961 0,0"
             style="fill:#231f20;fill-opacity:1;fill-rule:evenodd;stroke:none"
             id="path294"
             inkscape:connector-curvature="0" /></g><g
           id="g296"
           transform="translate(396.7275,424.2217)"><path
             d="M 0,0 C 2.102,-0.871 4.179,2.903 4.263,3.374 2.983,4.238 2.362,3.808 1.367,2.769 0.309,1.662 -0.398,1.691 0,0"
             style="fill:#231f20;fill-opacity:1;fill-rule:evenodd;stroke:none"
             id="path298"
             inkscape:connector-curvature="0" /></g><g
           id="g300"
           transform="translate(408.8906,421.5576)"><path
             d="M 0,0 C 0.953,0.922 0.137,2.503 -1.15,1.72 -3.806,0.105 -4.416,-3.245 -2.038,-2.002 -1.689,-1.819 -0.438,-0.424 0,0"
             style="fill:#231f20;fill-opacity:1;fill-rule:evenodd;stroke:none"
             id="path302"
             inkscape:connector-curvature="0" /></g><g
           id="g304"
           transform="translate(331.2266,469.2876)"><path
             d="M 0,0 C -2.038,0.648 -4.852,-2.462 -4.068,-3.245 -2.727,-4.582 0.327,-1.328 0,0"
             style="fill:#231f20;fill-opacity:1;fill-rule:evenodd;stroke:none"
             id="path306"
             inkscape:connector-curvature="0" /></g><g
           id="g308"
           transform="translate(365.916,442.752)"><path
             d="M 0,0 C 1.673,-0.419 1.939,-0.178 2.774,1.017 3.353,1.843 4.087,2.176 3.996,3.218 2.686,4.322 2.235,3.184 1.385,2.408 0.167,1.3 -0.231,1.884 0,0"
             style="fill:#231f20;fill-opacity:1;fill-rule:evenodd;stroke:none"
             id="path310"
             inkscape:connector-curvature="0" /></g><g
           id="g312"
           transform="translate(372.0225,439.1436)"><path
             d="M 0,0 C 1.307,-0.642 1.612,-0.455 2.637,0.547 6.859,4.671 0.142,3.576 0,0"
             style="fill:#231f20;fill-opacity:1;fill-rule:evenodd;stroke:none"
             id="path314"
             inkscape:connector-curvature="0" /></g><g
           id="g316"
           transform="translate(360.4268,446.4141)"><path
             d="M 0,0 C 0.701,0.189 3.117,1.938 3.209,3.541 1.471,4.376 1.554,3.762 0.289,2.651 -0.796,1.698 -1.338,1.147 0,0"
             style="fill:#231f20;fill-opacity:1;fill-rule:evenodd;stroke:none"
             id="path318"
             inkscape:connector-curvature="0" /></g><g
           id="g320"
           transform="translate(312.8228,507.2842)"><path
             d="M 0,0 C 1.091,-0.296 1.786,0.632 2.581,1.324 3.558,2.173 4.157,2.235 4.353,3.513 2.487,3.652 -0.773,2.105 0,0"
             style="fill:#231f20;fill-opacity:1;fill-rule:evenodd;stroke:none"
             id="path322"
             inkscape:connector-curvature="0" /></g><g
           id="g324"
           transform="translate(369.0693,440.8105)"><path
             d="M 0,0 C 1.804,-0.21 1.622,-0.192 2.577,1.068 3.368,2.112 4.034,2.231 3.223,3.538 2.595,4.01 -0.332,1.949 0,0"
             style="fill:#231f20;fill-opacity:1;fill-rule:evenodd;stroke:none"
             id="path326"
             inkscape:connector-curvature="0" /></g><g
           id="g328"
           transform="translate(362.9385,444.874)"><path
             d="M 0,0 C 1.623,-1.099 4.026,1.856 3.54,3.254 2.3,3.509 1.976,2.938 1.115,2.181 0.181,1.359 -0.306,1.229 0,0"
             style="fill:#231f20;fill-opacity:1;fill-rule:evenodd;stroke:none"
             id="path330"
             inkscape:connector-curvature="0" /></g><g
           id="g332"
           transform="translate(393.208,426.5166)"><path
             d="M 0,0 C 1.7,-1.32 4.329,1.436 3.544,3.019 2.074,3.413 0.163,1.226 0,0"
             style="fill:#231f20;fill-opacity:1;fill-rule:evenodd;stroke:none"
             id="path334"
             inkscape:connector-curvature="0" /></g><g
           id="g336"
           transform="translate(409.1094,418.5303)"><path
             d="M 0,0 C 1.826,-0.466 4.683,0.522 3.189,2.119 2.222,3.154 -0.155,1.822 0,0"
             style="fill:#231f20;fill-opacity:1;fill-rule:evenodd;stroke:none"
             id="path338"
             inkscape:connector-curvature="0" /></g><g
           id="g340"
           transform="translate(276.3262,496.8906)"><path
             d="M 0,0 C 1.807,-0.243 3.583,1.009 3.42,2.823 1.533,3.364 -0.05,1.843 0,0"
             style="fill:#231f20;fill-opacity:1;fill-rule:evenodd;stroke:none"
             id="path342"
             inkscape:connector-curvature="0" /></g><g
           id="g344"
           transform="translate(270.0513,505.2446)"><path
             d="m 0,0 c -1.662,0.482 -3.507,-0.583 -2.691,-2.063 0.417,-0.755 1.38,-0.551 1.999,-0.103 C 0.09,-1.597 -0.017,-0.871 0,0"
             style="fill:#231f20;fill-opacity:1;fill-rule:evenodd;stroke:none"
             id="path346"
             inkscape:connector-curvature="0" /></g><g
           id="g348"
           transform="translate(352.4395,480.2402)"><path
             d="M 0,0 C 0.259,-0.015 0.948,0.659 1.338,0.994 2.256,1.781 2.217,1.858 2.026,3.163 0.281,3.184 -1.003,1.479 0,0"
             style="fill:#231f20;fill-opacity:1;fill-rule:evenodd;stroke:none"
             id="path350"
             inkscape:connector-curvature="0" /></g><g
           id="g352"
           transform="translate(412.583,508.1582)"><path
             d="M 0,0 C 1.139,1.868 1.638,1.563 1.919,-0.637 1.19,-1.119 0.282,-2.286 -0.384,-2.897 -1.193,-3.638 -2.288,-4.57 -1.533,-5.787 1.973,-6.457 2.991,1.275 5.359,-3.313 L 4.238,-3.914 5.474,-3.673 C 5.449,-2.359 4.951,-1.919 3.7,-1.58 1.95,-2.625 0.604,-6.446 -1.442,-5.408 c -0.473,1.066 0.791,1.929 1.473,2.626 2.313,2.361 2.173,2.08 1.915,3.687 C 0.583,1.669 0.331,1.6 0,0"
             style="fill:#231f20;fill-opacity:1;fill-rule:evenodd;stroke:none"
             id="path354"
             inkscape:connector-curvature="0" /></g><g
           id="g356"
           transform="translate(368.6318,506.4482)"><path
             d="M 0,0 C 0.313,-0.148 -0.548,-0.437 0.886,-0.183 1.206,-0.126 1.364,0.044 1.585,0.229 2.077,0.642 2.169,0.808 2.298,1.431 1.495,1.874 1.617,1.776 0.606,1.686 0.12,0.734 -0.113,1.013 0,0"
             style="fill:#231f20;fill-opacity:1;fill-rule:evenodd;stroke:none"
             id="path358"
             inkscape:connector-curvature="0" /></g><g
           id="g360"
           transform="translate(273.9907,495.8188)"><path
             d="M 0,0 C -0.001,-1.461 0.764,-1.812 2.027,-1.268 2.153,-0.224 2.25,-0.292 1.44,0.392 0.549,0.488 0.764,0.466 0,0"
             style="fill:#231f20;fill-opacity:1;fill-rule:evenodd;stroke:none"
             id="path362"
             inkscape:connector-curvature="0" /></g><g
           id="g364"
           transform="translate(389.3809,416.8057)"><path
             d="M 0,0 C 0.958,-0.408 1.541,-0.051 1.924,0.854 0.895,2.006 -0.424,1.17 0,0"
             style="fill:#231f20;fill-opacity:1;fill-rule:evenodd;stroke:none"
             id="path366"
             inkscape:connector-curvature="0" /></g><g
           id="g368"
           transform="translate(370.9687,508.7554)"><path
             d="M 0,0 C 1.185,-0.133 1.7,0.498 1.366,1.639 0.3,1.848 -0.52,1.146 0,0"
             style="fill:#231f20;fill-opacity:1;fill-rule:evenodd;stroke:none"
             id="path370"
             inkscape:connector-curvature="0" /></g><g
           id="g372"
           transform="translate(398.9541,422.082)"><path
             d="M 0,0 C 1.27,-0.251 2.049,0.251 1.561,1.55 0.55,1.829 -0.047,0.939 0,0"
             style="fill:#231f20;fill-opacity:1;fill-rule:evenodd;stroke:none"
             id="path374"
             inkscape:connector-curvature="0" /></g><g
           id="g376"
           transform="translate(351.9258,485.1777)"><path
             d="m 0,0 c -0.854,0.36 -0.308,0.33 -1.39,0.031 l 0.174,-1.001 c 0.636,-0.377 -0.098,-0.331 1.153,-0.217 L 0,0 Z"
             style="fill:#231f20;fill-opacity:1;fill-rule:evenodd;stroke:none"
             id="path378"
             inkscape:connector-curvature="0" /></g><g
           id="g380"
           transform="translate(291.5112,442.6797)"><path
             d="M 0,0 C -0.053,-0.572 0.185,-0.433 0.335,-0.027 0.609,0.712 0.012,0.129 0,0"
             style="fill:#231f20;fill-opacity:1;fill-rule:evenodd;stroke:none"
             id="path382"
             inkscape:connector-curvature="0" /></g><g
           id="g384"
           transform="translate(341.4805,614.1611)"><path
             d="m 0,0 c 81.439,0 147.459,-66.115 147.459,-147.673 0,-81.558 -66.02,-147.674 -147.459,-147.674 -81.44,0 -147.459,66.116 -147.459,147.674 C -147.459,-66.115 -81.44,0 0,0 Z"
             style="fill:none;stroke:#231f20;stroke-width:3.17199993;stroke-linecap:butt;stroke-linejoin:miter;stroke-miterlimit:22.9260006;stroke-dasharray:none;stroke-opacity:1"
             id="path386"
             inkscape:connector-curvature="0" /></g><g
           id="g388"
           transform="translate(425.2881,357.6963)"><path
             d="M 0,0 -5.724,3.952 -3.927,-2.75 0,0 Z M 9.337,-1.946 6.174,-4.16 2.627,-1.771 -3.126,-5.798 -2.022,-9.899 -5.104,-12.058 -9.575,6.258 -6.503,8.41 9.337,-1.946 Z m -22.044,-14.206 -8.517,15.365 3.102,1.719 8.518,-15.366 -3.103,-1.718 z m -13.827,-6.709 3.486,1.479 -1.073,18.63 -3.464,-1.471 1.119,-13.65 -9.17,10.233 -3.543,-1.504 12.645,-13.717 z m -15.416,1.4 -4.125,5.6 -0.484,-6.922 4.609,1.322 z m 8.195,-4.88 -3.713,-1.064 -2.574,3.415 -6.751,-1.936 -0.292,-4.237 -3.617,-1.037 1.736,18.773 3.605,1.034 11.606,-14.948 z m -31.477,7.391 0.693,-4.935 1.92,0.271 c 1.385,0.194 2.301,0.414 2.74,0.661 0.441,0.248 0.765,0.583 0.978,1.01 0.209,0.425 0.279,0.893 0.207,1.408 -0.089,0.632 -0.349,1.129 -0.78,1.489 -0.425,0.358 -0.936,0.55 -1.517,0.571 -0.433,0.022 -1.28,-0.059 -2.544,-0.237 l -1.697,-0.238 z m -1.481,-14.946 -2.445,17.396 5.635,0.792 c 2.133,0.3 3.54,0.407 4.212,0.324 1.034,-0.119 1.952,-0.568 2.747,-1.348 0.794,-0.782 1.29,-1.865 1.484,-3.246 0.15,-1.069 0.082,-1.996 -0.205,-2.775 -0.286,-0.784 -0.695,-1.424 -1.236,-1.926 -0.539,-0.496 -1.107,-0.857 -1.705,-1.077 -0.814,-0.284 -2.017,-0.54 -3.609,-0.764 l -2.288,-0.322 0.922,-6.561 -3.512,-0.493 z"
             style="fill:#231f20;fill-opacity:1;fill-rule:nonzero;stroke:none"
             id="path390"
             inkscape:connector-curvature="0" /></g><g
           id="g392"
           transform="translate(281.1416,576.3071)"><path
             d="m 0,0 c -0.173,-0.536 -0.497,-1.029 -0.963,-1.48 -0.358,-0.353 -1.011,-0.797 -1.954,-1.341 l -2.521,-1.456 -6.398,11.082 1.516,0.875 c 1.379,0.797 2.332,1.279 2.866,1.442 0.71,0.228 1.383,0.269 2.021,0.118 C -4.801,9.09 -4.169,8.732 -3.539,8.172 -2.912,7.609 -2.224,6.687 -1.477,5.393 -0.73,4.099 -0.255,3.007 -0.049,2.128 0.153,1.247 0.173,0.537 0,0 m 2.29,7.382 c -0.907,1.57 -1.85,2.782 -2.832,3.644 -0.982,0.856 -2.038,1.452 -3.164,1.783 -1.126,0.338 -2.264,0.366 -3.413,0.088 -0.856,-0.209 -1.976,-0.716 -3.367,-1.519 L -16.663,7.812 -7,-8.924 l 6.355,3.67 c 1.251,0.722 2.181,1.415 2.788,2.082 0.814,0.896 1.348,1.797 1.602,2.707 C 4.09,0.736 4.117,2.067 3.832,3.523 3.599,4.719 3.084,6.006 2.29,7.382"
             style="fill:#231f20;fill-opacity:1;fill-rule:nonzero;stroke:none"
             id="path394"
             inkscape:connector-curvature="0" /></g><g
           id="g396"
           transform="translate(288.4546,592.6929)"><path
             d="M 0,0 -1.34,3.157 -4.749,1.709 -3.409,-1.447 0,0 Z"
             style="fill:#231f20;fill-opacity:1;fill-rule:nonzero;stroke:none"
             id="path398"
             inkscape:connector-curvature="0" /></g><g
           id="g400"
           transform="translate(260.6685,560.7954)"><path
             d="M 0,0 -3.381,4.029 4.05,10.265 1.959,12.757 -5.472,6.521 -8.226,9.802 -0.239,16.504 -2.342,19.01 -13.316,9.801 -0.894,-5.003 10.363,4.443 8.269,6.938 0,0 Z"
             style="fill:#231f20;fill-opacity:1;fill-rule:nonzero;stroke:none"
             id="path402"
             inkscape:connector-curvature="0" /></g><g
           id="g404"
           transform="translate(309.5601,592.1226)"><path
             d="m 0,0 c -0.727,0.658 -1.59,1.088 -2.596,1.301 -1.006,0.208 -2.483,0.266 -4.432,0.176 -1.948,-0.096 -3.218,-0.011 -3.803,0.252 -0.461,0.205 -0.755,0.528 -0.882,0.969 -0.138,0.48 -0.049,0.922 0.267,1.322 0.486,0.626 1.279,1.092 2.368,1.404 1.056,0.303 1.907,0.323 2.555,0.054 0.647,-0.264 1.19,-0.853 1.624,-1.762 l 3.703,1.24 c -0.551,1.69 -1.56,2.876 -3.03,3.563 -1.474,0.682 -3.372,0.69 -5.707,0.021 -1.427,-0.41 -2.581,-0.974 -3.47,-1.693 -0.884,-0.721 -1.478,-1.571 -1.779,-2.546 -0.299,-0.98 -0.315,-1.939 -0.043,-2.886 0.422,-1.471 1.35,-2.553 2.784,-3.246 1.018,-0.495 2.603,-0.705 4.757,-0.626 1.673,0.059 2.753,0.079 3.235,0.048 0.709,-0.04 1.236,-0.179 1.58,-0.417 0.348,-0.233 0.584,-0.568 0.71,-1.008 0.197,-0.684 0.061,-1.369 -0.407,-2.055 -0.462,-0.69 -1.302,-1.207 -2.509,-1.553 -1.141,-0.328 -2.129,-0.297 -2.963,0.082 -0.839,0.382 -1.543,1.153 -2.111,2.32 l -3.548,-1.406 c 0.838,-2.007 2.044,-3.374 3.614,-4.098 1.57,-0.725 3.529,-0.748 5.877,-0.075 1.614,0.463 2.898,1.074 3.85,1.838 0.952,0.76 1.588,1.692 1.914,2.791 0.327,1.096 0.335,2.179 0.03,3.243 C 1.251,-1.574 0.723,-0.659 0,0"
             style="fill:#231f20;fill-opacity:1;fill-rule:nonzero;stroke:none"
             id="path406"
             inkscape:connector-curvature="0" /></g><g
           id="g408"
           transform="translate(285.7876,589.4985)"><path
             d="M 0,0 5.469,-12.885 8.878,-11.438 3.409,1.447 0,0 Z"
             style="fill:#231f20;fill-opacity:1;fill-rule:nonzero;stroke:none"
             id="path410"
             inkscape:connector-curvature="0" /></g><g
           id="g412"
           transform="translate(330.1772,595.9849)"><path
             d="M 0,0 -1.237,10.075 -5.109,9.6 -3.806,-1.012 c 0.187,-1.518 0.266,-2.61 0.23,-3.28 -0.031,-0.666 -0.298,-1.261 -0.801,-1.776 -0.503,-0.52 -1.307,-0.845 -2.405,-0.98 -1.081,-0.133 -1.963,-0.001 -2.647,0.4 -0.678,0.398 -1.154,0.978 -1.415,1.744 -0.154,0.475 -0.335,1.541 -0.537,3.189 l -1.275,10.388 -3.872,-0.475 1.256,-10.232 c 0.264,-2.148 0.588,-3.754 0.978,-4.821 0.265,-0.72 0.713,-1.386 1.346,-1.993 0.632,-0.607 1.445,-1.065 2.444,-1.373 0.999,-0.307 2.413,-0.347 4.244,-0.122 1.519,0.186 2.728,0.53 3.622,1.034 0.89,0.504 1.581,1.119 2.064,1.84 0.482,0.726 0.768,1.572 0.861,2.549 C 0.38,-3.943 0.283,-2.305 0,0"
             style="fill:#231f20;fill-opacity:1;fill-rule:nonzero;stroke:none"
             id="path414"
             inkscape:connector-curvature="0" /></g></g></g><g
       id="g416"
       transform="translate(27,874.8896)"><path
         d="m 0,0 -27,0 m 634.275,0 27,0 M 0,-841.89 l -27,0 m 634.275,0 27,0 M 6,6 6,33 m 0,-880.89 0,-27 M 601.275,6 l 0,27 m 0,-880.89 0,-27"
         style="fill:none;stroke:#ffffff;stroke-width:1.25;stroke-linecap:butt;stroke-linejoin:miter;stroke-miterlimit:10;stroke-dasharray:none;stroke-opacity:1"
         id="path418"
         inkscape:connector-curvature="0" /></g><g
       id="g420"
       transform="translate(27,874.8896)"><path
         d="m 0,0 -27,0 m 634.275,0 27,0 M 0,-841.89 l -27,0 m 634.275,0 27,0 M 6,6 6,33 m 0,-880.89 0,-27 M 601.275,6 l 0,27 m 0,-880.89 0,-27"
         style="fill:none;stroke:#000000;stroke-width:0.25;stroke-linecap:butt;stroke-linejoin:miter;stroke-miterlimit:10;stroke-dasharray:none;stroke-opacity:1"
         id="path422"
         inkscape:connector-curvature="0" /></g></g></svg>