<?xml version="1.0" encoding="utf-8"?>
<!-- Generator: Adobe Illustrator 16.0.0, SVG Export Plug-In . SVG Version: 6.00 Build 0)  -->
<!DOCTYPE svg PUBLIC "-//W3C//DTD SVG 1.1//EN" "http://www.w3.org/Graphics/SVG/1.1/DTD/svg11.dtd">
<svg version="1.1" id="Livello_1" xmlns="http://www.w3.org/2000/svg" xmlns:xlink="http://www.w3.org/1999/xlink" x="0px" y="0px"
	 width="595.275px" height="262.445px" viewBox="0 0 595.275 262.445" enable-background="new 0 0 595.275 262.445"
	 xml:space="preserve">
<g>
	<path fill="#004587" d="M381.252,180.198c-3.462,4.111-7.79,7.466-12.983,10.062c-5.192,2.597-10.747,4.473-16.661,5.625
		c-5.917,1.152-11.398,1.732-16.445,1.732c-5.484,0-11.468-0.472-17.96-1.407s-12.912-2.631-19.258-5.084v-21.641
		c6.059,2.164,11.901,3.897,17.528,5.195c5.625,1.297,12.188,1.945,19.69,1.945c6.924,0,12.837-1.082,17.744-3.243
		c4.901-2.165,9.013-4.905,12.334-8.225v-11.253c-0.866-0.721-3.177-1.584-6.925-2.597c-3.754-1.007-7.935-1.98-12.551-2.92
		c-4.618-0.937-9.088-1.873-13.414-2.812c-4.329-0.937-7.504-1.624-9.522-2.057c-3.029-0.72-6.204-1.585-9.521-2.596
		c-3.32-1.007-6.384-2.381-9.197-4.111c-2.812-1.73-5.122-3.93-6.924-6.601c-1.805-2.669-2.705-5.95-2.705-9.846v-12.334
		c0-5.913,1.731-10.927,5.193-15.039c3.463-4.111,7.79-7.466,12.982-10.062c5.194-2.597,10.783-4.469,16.77-5.626
		c5.986-1.153,11.432-1.731,16.338-1.731c5.481,0,11.432,0.471,17.852,1.407c6.418,0.939,12.876,2.633,19.367,5.085v21.638
		c-6.059-2.164-11.902-3.895-17.526-5.193c-5.628-1.298-12.192-1.947-19.692-1.947c-6.924,0-12.875,1.048-17.852,3.138
		c-4.978,2.093-9.054,4.868-12.226,8.331v11.036c0.865,0.723,3.172,1.589,6.924,2.597c3.75,1.011,7.932,2.021,12.551,3.028
		c4.616,1.012,9.088,1.949,13.416,2.813c4.328,0.866,7.5,1.515,9.521,1.947c3.028,0.724,6.201,1.591,9.521,2.597
		c3.315,1.012,6.384,2.381,9.196,4.111c2.812,1.731,5.119,3.933,6.924,6.601c1.803,2.671,2.705,5.95,2.705,9.846v12.55
		C386.445,171.075,384.715,176.088,381.252,180.198z"/>
	<path fill="#004587" d="M518.234,180.198c-3.454,4.111-7.775,7.466-12.956,10.062c-5.184,2.597-10.724,4.473-16.627,5.625
		s-11.372,1.732-16.41,1.732c-4.895,0-10.327-0.58-16.302-1.732s-11.555-3.028-16.732-5.625c-5.185-2.597-9.502-5.951-12.957-10.062
		c-3.455-4.11-5.183-9.123-5.183-15.039v-57.126c0-5.913,1.622-10.927,4.868-15.039c3.247-4.111,7.283-7.466,12.118-10.062
		c4.832-2.597,10.133-4.469,15.905-5.626c5.766-1.153,11.177-1.731,16.228-1.731c4.762,0,10.062,0.471,15.904,1.407
		c5.843,0.939,11.286,2.417,16.338,4.436V28.404h20.989v136.755C523.418,171.075,521.689,176.088,518.234,180.198z M502.429,108.033
		c-3.321-3.316-7.79-6.059-13.416-8.223c-5.626-2.163-11.902-3.246-18.826-3.246c-6.925,0-12.517,1.048-16.77,3.138
		c-4.258,2.093-8.044,4.868-11.36,8.331v57.126c3.316,3.319,7.466,6.06,12.441,8.225c4.977,2.161,10.929,3.243,17.854,3.243
		c6.924,0,12.873-1.082,17.852-3.243c4.977-2.165,9.05-4.905,12.226-8.225V108.033z"/>
	<path fill="#004587" d="M587.821,51.959c-2.792,2.763-6.049,4.142-9.767,4.142c-3.869,0-7.195-1.379-9.987-4.142
		c-2.792-2.762-4.187-6.106-4.187-10.032c0-3.921,1.395-7.265,4.187-10.028c2.792-2.762,6.118-4.145,9.987-4.145
		c3.718,0,6.975,1.383,9.767,4.145c2.794,2.763,4.19,6.106,4.19,10.028C592.012,45.853,590.615,49.197,587.821,51.959z
		 M567.56,195.886V86.179c0-2.885,1.008-5.373,3.029-7.466c2.019-2.089,4.47-3.138,7.358-3.138c2.883,0,5.372,1.049,7.464,3.138
		c2.09,2.093,3.139,4.581,3.139,7.466v109.707H567.56z"/>
</g>
<g>
	<path fill="#004587" d="M299.614,220.034v14.136c0,0.431-0.147,0.8-0.444,1.104c-0.296,0.307-0.669,0.459-1.117,0.459
		c-0.433,0-0.802-0.152-1.106-0.459c-0.305-0.305-0.457-0.674-0.457-1.104v-14.136h-6.178v-3.102h15.458v3.102H299.614z"/>
	<path fill="#004587" d="M319.424,235.277c-0.303,0.304-0.672,0.456-1.104,0.456c-0.449,0-0.821-0.152-1.119-0.459
		c-0.296-0.305-0.444-0.674-0.444-1.108v-7.879c-0.32-0.304-0.685-0.548-1.093-0.733c-0.409-0.186-0.95-0.277-1.623-0.277
		c-0.706,0-1.335,0.097-1.888,0.288c-0.553,0.193-0.989,0.441-1.311,0.747v9.229h-3.125v-17.236
		c-0.016-0.433,0.133-0.801,0.444-1.105c0.313-0.304,0.686-0.455,1.119-0.455c0.433,0,0.801,0.149,1.104,0.455
		c0.305,0.305,0.457,0.673,0.457,1.105v4.348c0.529-0.176,1.078-0.298,1.646-0.368c0.569-0.072,1.086-0.108,1.552-0.108
		c0.545,0,1.157,0.063,1.839,0.192c0.681,0.127,1.317,0.348,1.911,0.66c0.592,0.312,1.09,0.725,1.49,1.239
		c0.4,0.511,0.602,1.145,0.602,1.899v8.005C319.882,234.603,319.729,234.973,319.424,235.277z"/>
	<path fill="#004587" d="M326.131,230.516v1.071c0.322,0.308,0.723,0.559,1.201,0.753c0.481,0.195,1.066,0.291,1.757,0.291
		c0.897,0,1.605-0.063,2.127-0.191c0.521-0.126,0.966-0.257,1.335-0.385c0.513-0.177,0.939-0.148,1.285,0.083
		c0.346,0.232,0.572,0.534,0.686,0.9s0.101,0.743-0.036,1.133c-0.135,0.392-0.436,0.662-0.9,0.822
		c-0.69,0.256-1.375,0.44-2.057,0.562c-0.682,0.119-1.495,0.179-2.439,0.179c-0.544,0-1.17-0.063-1.876-0.193
		c-0.705-0.127-1.367-0.348-1.988-0.66c-0.619-0.312-1.145-0.723-1.574-1.227c-0.429-0.506-0.644-1.141-0.644-1.911v-5.576
		c0-0.771,0.215-1.406,0.644-1.911c0.43-0.505,0.955-0.915,1.574-1.228c0.621-0.312,1.283-0.533,1.988-0.66
		c0.706-0.129,1.332-0.192,1.876-0.192s1.166,0.063,1.863,0.192c0.696,0.127,1.357,0.348,1.982,0.66s1.155,0.723,1.587,1.228
		c0.433,0.505,0.649,1.141,0.649,1.911v4.35H326.131z M330.843,225.572c-0.479-0.197-1.065-0.296-1.754-0.296
		c-0.69,0-1.275,0.099-1.757,0.296c-0.479,0.195-0.879,0.45-1.201,0.761v1.083h5.913v-1.083
		C331.726,226.022,331.324,225.768,330.843,225.572z"/>
	<path fill="#004587" d="M354.475,233.641c-0.4,0.515-0.897,0.928-1.489,1.239c-0.594,0.312-1.23,0.533-1.913,0.66
		c-0.681,0.13-1.292,0.193-1.839,0.193c-0.464,0-0.98-0.041-1.549-0.121c-0.569-0.076-1.12-0.206-1.648-0.38l-0.022,4.18
		c0,0.435-0.155,0.801-0.467,1.104c-0.309,0.306-0.679,0.456-1.108,0.456s-0.796-0.154-1.099-0.467
		c-0.301-0.312-0.453-0.678-0.453-1.094v-13.246c0-0.771,0.218-1.406,0.649-1.911c0.434-0.505,0.963-0.915,1.587-1.228
		c0.625-0.312,1.289-0.533,1.997-0.66c0.703-0.129,1.329-0.192,1.874-0.192s1.165,0.063,1.862,0.192
		c0.697,0.127,1.36,0.348,1.984,0.66c0.625,0.312,1.153,0.723,1.586,1.228s0.648,1.141,0.648,1.911v5.576
		C355.075,232.495,354.877,233.13,354.475,233.641z M351.951,226.316c-0.321-0.309-0.725-0.557-1.207-0.752
		c-0.484-0.191-1.07-0.288-1.762-0.288s-1.279,0.097-1.763,0.288c-0.483,0.195-0.885,0.443-1.206,0.752v5.275
		c0.321,0.308,0.759,0.556,1.314,0.751c0.555,0.192,1.187,0.288,1.894,0.288c0.677,0,1.221-0.092,1.63-0.277
		c0.411-0.186,0.778-0.439,1.1-0.762V226.316z"/>
	<path fill="#004587" d="M369.619,233.653c-0.432,0.504-0.96,0.915-1.586,1.227c-0.626,0.312-1.29,0.533-1.996,0.66
		c-0.705,0.13-1.323,0.193-1.851,0.193c-0.544,0-1.169-0.063-1.876-0.193c-0.703-0.127-1.369-0.348-1.994-0.66
		c-0.626-0.312-1.153-0.723-1.587-1.227c-0.433-0.506-0.648-1.141-0.648-1.911v-5.576c0-0.771,0.216-1.406,0.648-1.911
		c0.434-0.505,0.961-0.915,1.587-1.228c0.625-0.312,1.291-0.533,1.994-0.66c0.707-0.129,1.332-0.192,1.876-0.192
		c0.545,0,1.167,0.063,1.864,0.192c0.697,0.127,1.356,0.348,1.982,0.66s1.154,0.723,1.586,1.228c0.434,0.505,0.65,1.141,0.65,1.911
		v5.576C370.27,232.513,370.053,233.147,369.619,233.653z M367.144,226.316c-0.322-0.309-0.725-0.557-1.206-0.752
		c-0.482-0.191-1.07-0.288-1.763-0.288s-1.28,0.097-1.762,0.288c-0.482,0.195-0.887,0.443-1.207,0.752v5.275
		c0.32,0.308,0.725,0.556,1.207,0.751c0.481,0.192,1.069,0.288,1.762,0.288s1.28-0.096,1.763-0.288
		c0.481-0.195,0.884-0.443,1.206-0.751V226.316z"/>
	<path fill="#004587" d="M386.471,234.627c-0.111,0.353-0.301,0.622-0.562,0.805c-0.267,0.186-0.543,0.285-0.831,0.302
		c-0.289,0.017-0.561-0.06-0.817-0.229s-0.448-0.42-0.577-0.758l-2.5-6.777l-2.476,6.777c-0.112,0.338-0.301,0.589-0.565,0.758
		s-0.541,0.245-0.828,0.229c-0.29-0.017-0.566-0.116-0.829-0.302c-0.267-0.183-0.454-0.452-0.566-0.805l-3.341-10.505
		c-0.145-0.482-0.108-0.886,0.107-1.214c0.216-0.329,0.506-0.551,0.865-0.66c0.361-0.113,0.73-0.097,1.106,0.047
		c0.376,0.143,0.637,0.447,0.78,0.912l2.021,6.443l2.332-6.419c0.097-0.272,0.259-0.517,0.491-0.732s0.534-0.324,0.902-0.324
		c0.385,0,0.693,0.108,0.926,0.324s0.397,0.46,0.493,0.732l2.332,6.419l2.02-6.443c0.145-0.465,0.405-0.77,0.78-0.912
		c0.376-0.144,0.743-0.16,1.094-0.047c0.353,0.109,0.637,0.331,0.853,0.66c0.219,0.328,0.254,0.731,0.111,1.214L386.471,234.627z"/>
	<path fill="#004587" d="M395.222,230.516v1.071c0.32,0.308,0.722,0.559,1.202,0.753c0.481,0.195,1.065,0.291,1.756,0.291
		c0.896,0,1.606-0.063,2.127-0.191c0.521-0.126,0.965-0.257,1.334-0.385c0.513-0.177,0.941-0.148,1.286,0.083
		c0.344,0.232,0.573,0.534,0.686,0.9s0.101,0.743-0.037,1.133c-0.136,0.392-0.436,0.662-0.901,0.822
		c-0.688,0.256-1.375,0.44-2.055,0.562c-0.682,0.119-1.494,0.179-2.439,0.179c-0.546,0-1.171-0.063-1.875-0.193
		c-0.706-0.127-1.369-0.348-1.988-0.66c-0.622-0.312-1.147-0.723-1.576-1.227c-0.43-0.506-0.644-1.141-0.644-1.911v-5.576
		c0-0.771,0.214-1.406,0.644-1.911c0.429-0.505,0.954-0.915,1.576-1.228c0.619-0.312,1.282-0.533,1.988-0.66
		c0.704-0.129,1.329-0.192,1.875-0.192c0.544,0,1.164,0.063,1.862,0.192c0.697,0.127,1.359,0.348,1.983,0.66
		c0.625,0.312,1.153,0.723,1.587,1.228c0.432,0.505,0.649,1.141,0.649,1.911v4.35H395.222z M399.934,225.572
		c-0.48-0.197-1.066-0.296-1.754-0.296c-0.69,0-1.274,0.099-1.756,0.296c-0.48,0.195-0.882,0.45-1.202,0.761v1.083h5.914v-1.083
		C400.815,226.022,400.415,225.768,399.934,225.572z"/>
	<path fill="#004587" d="M413.254,225.276c-0.675,0-1.243,0.076-1.707,0.229c-0.467,0.151-0.883,0.342-1.252,0.564v9.471h-3.125
		v-9.687c0-0.497,0.1-0.929,0.299-1.298s0.465-0.69,0.799-0.964c0.334-0.271,0.712-0.499,1.133-0.684
		c0.422-0.184,0.857-0.329,1.304-0.433c0.449-0.106,0.897-0.181,1.347-0.228c0.449-0.05,0.85-0.073,1.203-0.073
		c0.976,0,1.758,0.1,2.342,0.299c0.586,0.199,1.011,0.446,1.274,0.739c0.266,0.294,0.393,0.607,0.385,0.941
		c-0.009,0.336-0.103,0.629-0.287,0.882c-0.185,0.257-0.434,0.444-0.747,0.563c-0.312,0.121-0.652,0.118-1.021-0.012
		C414.605,225.38,413.957,225.276,413.254,225.276z"/>
	<path fill="#004587" d="M435.081,233.653c-0.433,0.504-0.961,0.915-1.587,1.227c-0.625,0.312-1.291,0.533-1.995,0.66
		c-0.705,0.13-1.322,0.193-1.851,0.193c-0.546,0-1.171-0.063-1.876-0.193c-0.705-0.127-1.371-0.348-1.995-0.66
		c-0.625-0.312-1.154-0.723-1.587-1.227c-0.433-0.506-0.648-1.141-0.648-1.911v-5.576c0-0.771,0.216-1.406,0.648-1.911
		s0.962-0.915,1.587-1.228c0.624-0.312,1.29-0.533,1.995-0.66c0.705-0.129,1.33-0.192,1.876-0.192c0.545,0,1.165,0.063,1.862,0.192
		c0.697,0.127,1.358,0.348,1.983,0.66c0.626,0.312,1.154,0.723,1.587,1.228s0.648,1.141,0.648,1.911v5.576
		C435.729,232.513,435.514,233.147,435.081,233.653z M432.604,226.316c-0.322-0.309-0.724-0.557-1.206-0.752
		c-0.484-0.191-1.071-0.288-1.764-0.288c-0.691,0-1.278,0.097-1.762,0.288c-0.481,0.195-0.885,0.443-1.206,0.752v5.275
		c0.321,0.308,0.725,0.556,1.206,0.751c0.483,0.192,1.07,0.288,1.762,0.288c0.692,0,1.279-0.096,1.764-0.288
		c0.482-0.195,0.884-0.443,1.206-0.751V226.316z"/>
	<path fill="#004587" d="M446.908,225.016c-0.305,0.301-0.673,0.453-1.106,0.453h-2.956v10.071h-3.127v-10.071h-1.585v-3.102h1.585
		v-1.418c0-0.77,0.218-1.411,0.649-1.924c0.435-0.514,0.963-0.926,1.588-1.238s1.286-0.533,1.983-0.662
		c0.697-0.126,1.318-0.192,1.862-0.192c0.434,0,0.802,0.147,1.106,0.442s0.457,0.663,0.457,1.109c0,0.43-0.152,0.795-0.457,1.097
		s-0.673,0.453-1.106,0.453c-0.688,0-1.273,0.099-1.755,0.293c-0.481,0.192-0.882,0.443-1.201,0.752v1.288h2.956
		c0.434,0,0.802,0.146,1.106,0.441s0.457,0.665,0.457,1.108C447.365,224.347,447.213,224.713,446.908,225.016z"/>
	<path fill="#004587" d="M463.436,235.47c-0.937,0.176-1.863,0.264-2.776,0.264c-0.433,0-0.897-0.024-1.395-0.073
		c-0.497-0.048-0.994-0.124-1.49-0.229c-0.498-0.105-0.975-0.24-1.431-0.41c-0.457-0.167-0.862-0.381-1.214-0.639
		c-0.353-0.256-0.634-0.561-0.842-0.915c-0.207-0.353-0.312-0.764-0.312-1.229v-1.229c0-0.625,0.176-1.131,0.529-1.517
		c0.353-0.387,0.79-0.695,1.311-0.928c0.52-0.232,1.069-0.414,1.646-0.542c0.578-0.13,1.091-0.249,1.539-0.362l4.015-0.938v-0.411
		c-0.32-0.306-0.721-0.554-1.202-0.747c-0.48-0.191-1.066-0.288-1.755-0.288c-0.786,0-1.606,0.104-2.464,0.309
		c-0.857,0.203-1.671,0.431-2.439,0.678v-3.225c0.384-0.175,0.801-0.313,1.25-0.42c0.448-0.103,0.893-0.191,1.333-0.263
		c0.441-0.072,0.862-0.122,1.263-0.145c0.4-0.024,0.753-0.036,1.058-0.036c0.544,0,1.167,0.063,1.864,0.192
		c0.696,0.127,1.357,0.348,1.982,0.66s1.154,0.723,1.587,1.228c0.434,0.505,0.649,1.141,0.649,1.911v8.703
		C465.275,235.092,464.374,235.291,463.436,235.47z M463.015,229.988l-3.317,0.768c-0.433,0.097-0.865,0.189-1.299,0.277
		c-0.432,0.088-0.856,0.204-1.272,0.349v0.602c0.271,0.24,0.681,0.408,1.225,0.505c0.544,0.096,1.314,0.143,2.309,0.143
		c0.32,0,0.685-0.027,1.093-0.084c0.409-0.054,0.83-0.122,1.263-0.204V229.988z"/>
	<path fill="#004587" d="M480.804,233.653c-0.434,0.504-0.962,0.915-1.587,1.227c-0.625,0.312-1.286,0.533-1.983,0.66
		c-0.697,0.13-1.318,0.193-1.863,0.193s-1.171-0.063-1.874-0.193c-0.706-0.127-1.371-0.348-1.996-0.66
		c-0.626-0.312-1.154-0.723-1.587-1.227c-0.433-0.506-0.648-1.141-0.648-1.911v-9.375h3.125v9.229
		c0.321,0.306,0.724,0.554,1.206,0.747c0.482,0.192,1.07,0.288,1.764,0.288c0.689,0,1.277-0.096,1.761-0.288
		c0.482-0.193,0.885-0.441,1.206-0.747v-9.229h3.127v9.375C481.453,232.513,481.235,233.147,480.804,233.653z"/>
	<path fill="#004587" d="M492.752,235.1c-0.307,0.295-0.674,0.44-1.106,0.44c-0.544,0-1.165-0.063-1.863-0.191
		c-0.696-0.131-1.357-0.352-1.982-0.663c-0.625-0.314-1.155-0.727-1.588-1.242c-0.433-0.513-0.649-1.154-0.649-1.928v-6.047
		c-0.432,0-0.805-0.147-1.117-0.441c-0.312-0.296-0.469-0.664-0.469-1.11c0-0.429,0.156-0.795,0.469-1.097s0.686-0.453,1.117-0.453
		v-3.559c0-0.432,0.149-0.8,0.445-1.106c0.296-0.302,0.669-0.456,1.118-0.456c0.433,0,0.801,0.154,1.106,0.456
		c0.303,0.307,0.455,0.675,0.455,1.106v3.559h4.521v3.102h-4.521v5.93c0.321,0.306,0.722,0.557,1.203,0.751
		c0.48,0.193,1.065,0.29,1.755,0.29c0.433,0,0.8,0.152,1.106,0.452c0.304,0.303,0.456,0.669,0.456,1.1
		C493.208,234.438,493.056,234.806,492.752,235.1z"/>
	<path fill="#004587" d="M507.151,233.653c-0.432,0.504-0.961,0.915-1.587,1.227c-0.624,0.312-1.29,0.533-1.993,0.66
		c-0.706,0.13-1.323,0.193-1.853,0.193c-0.546,0-1.17-0.063-1.875-0.193c-0.706-0.127-1.369-0.348-1.995-0.66
		c-0.624-0.312-1.155-0.723-1.587-1.227c-0.433-0.506-0.648-1.141-0.648-1.911v-5.576c0-0.771,0.216-1.406,0.648-1.911
		c0.432-0.505,0.963-0.915,1.587-1.228c0.626-0.312,1.289-0.533,1.995-0.66c0.705-0.129,1.329-0.192,1.875-0.192
		c0.545,0,1.166,0.063,1.863,0.192c0.697,0.127,1.358,0.348,1.982,0.66c0.626,0.312,1.155,0.723,1.587,1.228
		c0.434,0.505,0.649,1.141,0.649,1.911v5.576C507.801,232.513,507.585,233.147,507.151,233.653z M504.676,226.316
		c-0.321-0.309-0.723-0.557-1.207-0.752c-0.482-0.191-1.069-0.288-1.762-0.288s-1.278,0.097-1.763,0.288
		c-0.481,0.195-0.885,0.443-1.207,0.752v5.275c0.322,0.308,0.726,0.556,1.207,0.751c0.484,0.192,1.07,0.288,1.763,0.288
		s1.279-0.096,1.762-0.288c0.484-0.195,0.886-0.443,1.207-0.751V226.316z"/>
	<path fill="#004587" d="M527.417,235.54v-9.229c-0.321-0.321-0.661-0.572-1.021-0.758c-0.359-0.186-0.87-0.277-1.526-0.277
		c-0.673,0-1.189,0.092-1.55,0.277c-0.361,0.186-0.702,0.437-1.022,0.758v9.229h-3.125v-9.229c-0.306-0.321-0.645-0.572-1.016-0.758
		c-0.369-0.186-0.885-0.277-1.544-0.277c-0.661,0-1.177,0.092-1.547,0.277c-0.371,0.186-0.709,0.437-1.015,0.758v9.229h-3.125
		v-9.111c0-0.704,0.185-1.326,0.553-1.86c0.368-0.539,0.833-0.982,1.395-1.337c0.561-0.352,1.178-0.615,1.852-0.794
		c0.673-0.176,1.307-0.263,1.898-0.263c0.721,0,1.446,0.113,2.176,0.336c0.729,0.225,1.374,0.554,1.936,0.986
		c0.562-0.433,1.211-0.762,1.947-0.986c0.738-0.223,1.467-0.336,2.188-0.336c0.594,0,1.222,0.087,1.887,0.263
		c0.666,0.179,1.278,0.442,1.84,0.794c0.561,0.354,1.025,0.798,1.394,1.337c0.368,0.534,0.554,1.156,0.554,1.86v9.111H527.417z"/>
	<path fill="#004587" d="M542.887,235.47c-0.938,0.176-1.862,0.264-2.776,0.264c-0.432,0-0.897-0.024-1.394-0.073
		c-0.498-0.048-0.996-0.124-1.491-0.229c-0.498-0.105-0.974-0.24-1.431-0.41c-0.457-0.167-0.862-0.381-1.213-0.639
		c-0.353-0.256-0.635-0.561-0.843-0.915c-0.208-0.353-0.312-0.764-0.312-1.229v-1.229c0-0.625,0.176-1.131,0.529-1.517
		c0.352-0.387,0.788-0.695,1.309-0.928c0.521-0.232,1.069-0.414,1.647-0.542c0.576-0.13,1.09-0.249,1.538-0.362l4.015-0.938v-0.411
		c-0.32-0.306-0.721-0.554-1.203-0.747c-0.479-0.191-1.065-0.288-1.753-0.288c-0.785,0-1.607,0.104-2.465,0.309
		c-0.856,0.203-1.671,0.431-2.44,0.678v-3.225c0.385-0.175,0.802-0.313,1.25-0.42c0.449-0.103,0.893-0.191,1.335-0.263
		c0.439-0.072,0.861-0.122,1.262-0.145c0.4-0.024,0.754-0.036,1.059-0.036c0.544,0,1.165,0.063,1.864,0.192
		c0.696,0.127,1.357,0.348,1.981,0.66c0.626,0.312,1.153,0.723,1.587,1.228s0.649,1.141,0.649,1.911v8.703
		C544.726,235.092,543.825,235.291,542.887,235.47z M542.466,229.988l-3.317,0.768c-0.432,0.097-0.865,0.189-1.298,0.277
		s-0.857,0.204-1.274,0.349v0.602c0.273,0.24,0.681,0.408,1.227,0.505c0.543,0.096,1.314,0.143,2.308,0.143
		c0.319,0,0.685-0.027,1.094-0.084c0.407-0.054,0.83-0.122,1.262-0.204V229.988z"/>
	<path fill="#004587" d="M555.327,235.1c-0.305,0.295-0.672,0.44-1.105,0.44c-0.545,0-1.166-0.063-1.862-0.191
		c-0.698-0.131-1.359-0.352-1.984-0.663c-0.624-0.314-1.154-0.727-1.588-1.242c-0.432-0.513-0.648-1.154-0.648-1.928v-6.047
		c-0.432,0-0.805-0.147-1.118-0.441c-0.312-0.296-0.468-0.664-0.468-1.11c0-0.429,0.156-0.795,0.468-1.097
		c0.313-0.302,0.687-0.453,1.118-0.453v-3.559c0-0.432,0.149-0.8,0.445-1.106c0.297-0.302,0.669-0.456,1.119-0.456
		c0.432,0,0.801,0.154,1.104,0.456c0.305,0.307,0.457,0.675,0.457,1.106v3.559h4.519v3.102h-4.519v5.93
		c0.321,0.306,0.722,0.557,1.202,0.751c0.479,0.193,1.065,0.29,1.755,0.29c0.434,0,0.801,0.152,1.105,0.452
		c0.305,0.303,0.456,0.669,0.456,1.1C555.783,234.438,555.632,234.806,555.327,235.1z"/>
	<path fill="#004587" d="M561.607,220.255c-0.384,0.382-0.838,0.573-1.363,0.573c-0.542,0-1.003-0.191-1.386-0.573
		c-0.383-0.383-0.572-0.843-0.572-1.386s0.189-1,0.572-1.374c0.383-0.375,0.844-0.562,1.386-0.562c0.525,0,0.979,0.188,1.363,0.562
		c0.382,0.374,0.572,0.831,0.572,1.374S561.989,219.872,561.607,220.255z M558.67,235.54v-11.803c0-0.433,0.151-0.802,0.452-1.106
		c0.303-0.304,0.668-0.456,1.097-0.456c0.431,0,0.8,0.152,1.111,0.456c0.311,0.305,0.466,0.674,0.466,1.106v11.803H558.67z"/>
	<path fill="#004587" d="M576.818,233.653c-0.432,0.504-0.96,0.915-1.587,1.227c-0.623,0.312-1.289,0.533-1.993,0.66
		c-0.706,0.13-1.323,0.193-1.851,0.193c-0.548,0-1.171-0.063-1.877-0.193c-0.706-0.127-1.369-0.348-1.995-0.66
		c-0.624-0.312-1.154-0.723-1.587-1.227c-0.433-0.506-0.648-1.141-0.648-1.911v-5.576c0-0.771,0.216-1.406,0.648-1.911
		s0.963-0.915,1.587-1.228c0.626-0.312,1.289-0.533,1.995-0.66c0.706-0.129,1.329-0.192,1.877-0.192
		c0.544,0,1.164,0.063,1.862,0.192c0.697,0.127,1.358,0.348,1.981,0.66c0.627,0.312,1.155,0.723,1.587,1.228
		c0.435,0.505,0.65,1.141,0.65,1.911v5.576C577.469,232.513,577.253,233.147,576.818,233.653z M574.344,226.316
		c-0.322-0.309-0.724-0.557-1.207-0.752c-0.483-0.191-1.07-0.288-1.763-0.288c-0.691,0-1.278,0.097-1.763,0.288
		c-0.481,0.195-0.884,0.443-1.206,0.752v5.275c0.322,0.308,0.725,0.556,1.206,0.751c0.484,0.192,1.071,0.288,1.763,0.288
		c0.692,0,1.279-0.096,1.763-0.288c0.483-0.195,0.885-0.443,1.207-0.751V226.316z"/>
	<path fill="#004587" d="M589.656,235.54v-9.229c-0.321-0.306-0.724-0.554-1.206-0.747c-0.485-0.191-1.071-0.288-1.763-0.288
		c-0.692,0-1.279,0.097-1.762,0.288c-0.484,0.193-0.887,0.441-1.208,0.747v9.229h-3.125v-9.374c0-0.771,0.216-1.406,0.649-1.911
		s0.962-0.915,1.588-1.228c0.624-0.312,1.288-0.533,1.994-0.66c0.704-0.129,1.33-0.192,1.875-0.192c0.544,0,1.166,0.063,1.863,0.192
		c0.696,0.127,1.357,0.348,1.983,0.66c0.624,0.312,1.154,0.723,1.587,1.228s0.649,1.141,0.649,1.911v9.374H589.656z"/>
</g>
<path fill="none" d="M193.1,195.275l-26.611-23.41c4.451-3.216,10.402-8.58,10.402-8.58l30.946,14.848l43.095,6.292
	c3.179-7.085,5.733-14.508,7.612-22.196l-43.792,0.868l-28.87-11.128c2.9-4.273,5.636-11.396,5.636-11.396l30.151,3.277l40.52-8.269
	c0.047-1.451,0.08-2.901,0.08-4.363c0-6.312-0.458-12.516-1.326-18.589l-37.158,14.368l-27.635-0.521
	c1.13-4.476,1.251-11.29,1.251-11.29l26.31-6.461l31.661-19.429c-2.38-7.009-5.343-13.749-8.828-20.163l-27.079,23.652
	l-23.508,8.059c-0.422-4.128-2.416-9.921-2.416-9.921l20.243-13.551l20.899-26.306c-4.868-6.223-10.296-11.989-16.198-17.232
	l-15.464,28.055l-17.479,14.117c-1.635-3.378-5.119-7.685-5.119-7.685l13.005-17.769l9.537-28.556
	c-6.181-4.021-12.72-7.533-19.563-10.472l-4.315,27.668l-10.241,16.994c-2.378-2.309-6.57-4.831-6.57-4.831l5.426-18.675
	l-0.721-26.933c-8.176-2.272-16.677-3.767-25.417-4.399l4.791,24.337l-3.529,18.019c-2.798-1.255-7.24-2.122-7.24-2.122
	l-1.19-17.957L125.53,1.162c-8.097,0.401-15.997,1.543-23.638,3.356l10.733,19.057l2.347,16.5c-2.774-0.245-6.841,0.337-6.841,0.337
	l-6.372-15.039L87.516,8.817c-6.712,2.443-13.165,5.427-19.31,8.891l14.418,12.214l7.209,13.51c-2.47,0.663-5.798,2.444-5.798,2.444
	L73.804,34.889l-17.332-9.723c-6.243,4.458-12.072,9.458-17.427,14.923l15.635,5.771l10.587,9.503
	c-1.948,1.366-4.288,3.977-4.288,3.977L48.559,53l-18.295-2.995c-5.056,6.328-9.531,13.136-13.351,20.347l15.046,0.067l11.974,5.087
	c-1.206,1.727-3.61,4.287-3.61,4.287l-11.298-1.573l-17.234,2.977c-3.174,7.625-5.65,15.612-7.336,23.888l12.491-4.688l11.573,0.61
	c-0.485,1.812-1.716,4.685-1.716,4.685l-9.934,2.126l-14.123,7.953c-0.599,5.067-0.916,10.219-0.916,15.445
	c0,2.061,0.054,4.107,0.148,6.144l9.878-8.46l11.082-3.384c0.166,1.87-0.008,4.991-0.008,4.991l-8.609,5.396L2.987,148.589
	c1.014,7.61,2.687,15.016,4.958,22.151l6.759-10.034l9.214-5.861c0.62,1.658,1.248,4.534,1.248,4.534l-6.464,7.065l-7.094,14.346
	c2.431,5.9,5.283,11.581,8.518,17.009l17.493-27.333l25.488-17.144c0,0,4.285,6.766,6.314,8.121l-20.073,25.485l-6.616,39.037
	c2.871,2.709,5.864,5.295,8.973,7.734l4.861-39.326l18.947-27.066c0,0,6.61,6.135,8.985,6.692l-9.889,34.808l9.688,43.596
	c4.123,1.625,8.349,3.043,12.663,4.244l-9.719-41.748l5.639-35.641c4.511,2.03,13.759,4.738,13.759,4.738l4.06,37.218l17.335,40.154
	c1.333,0.04,2.671,0.068,4.016,0.068c4.571,0,9.089-0.237,13.539-0.697l-23.399-39.25l-5.52-35.657
	c5.757,0.421,14.177,0.12,14.177,0.12l15.607,34.384l30.176,33.268c6.793-2.476,13.32-5.504,19.53-9.023l-36.565-29.179
	l-17.382-31.621c5.552-1.575,13.362-4.735,13.362-4.735l25.796,26.152l39.507,21.228c5.672-5.293,10.875-11.08,15.529-17.306
	L193.1,195.275z"/>
<path fill="#DCDEEC" d="M69.419,161.443c-2.029-1.355-6.314-8.121-6.314-8.121l-25.488,17.144l-17.493,27.333
	c6.211,10.418,13.831,19.894,22.605,28.167l6.616-39.037L69.419,161.443z"/>
<path fill="#CCD1E7" d="M84.497,174c-2.375-0.558-8.985-6.692-8.985-6.692l-18.947,27.066L51.703,233.7
	c9.825,7.717,20.788,14.048,32.592,18.703l-9.688-43.596L84.497,174z"/>
<path fill="#B3BCDA" d="M106.637,183.997c0,0-9.248-2.708-13.759-4.738l-5.639,35.641l9.719,41.748
	c9.931,2.773,20.338,4.398,31.074,4.722l-17.335-40.154L106.637,183.997z"/>
<path fill="#9BA7CE" d="M130.845,185.953c0,0-8.419,0.301-14.177-0.12l5.52,35.657l23.399,39.25
	c10.794-1.115,21.195-3.548,31.042-7.136l-30.176-33.268L130.845,185.953z"/>
<path fill="#8293C1" d="M155.573,179.046c0,0-7.81,3.16-13.362,4.735l17.382,31.621l36.565,29.179
	c8.956-5.073,17.245-11.18,24.717-18.155l-39.507-21.228L155.573,179.046z"/>
<path fill="#6A81B5" d="M176.891,163.285c0,0-5.952,5.364-10.402,8.58l26.611,23.41l43.306,13.845
	c5.704-7.629,10.588-15.905,14.526-24.695l-43.095-6.292L176.891,163.285z"/>
<path fill="#5170A9" d="M191.518,140.572c0,0-2.736,7.123-5.636,11.396l28.87,11.128l43.792-0.868
	c2.096-8.582,3.342-17.496,3.645-26.647l-40.52,8.269L191.518,140.572z"/>
<path fill="#37609D" d="M197.4,115.187c0,0-0.121,6.814-1.251,11.29l27.635,0.521l37.158-14.368
	c-1.15-8.036-3.024-15.837-5.571-23.332l-31.661,19.429L197.4,115.187z"/>
<path fill="#1A5292" d="M193.541,90.923c0,0,1.994,5.793,2.416,9.921l23.508-8.059l27.079-23.652
	c-3.457-6.362-7.431-12.402-11.86-18.067l-20.899,26.306L193.541,90.923z"/>
<path fill="#004587" d="M180.423,68.321c0,0,3.484,4.307,5.119,7.685l17.479-14.117l15.464-28.055
	c-4.862-4.318-10.047-8.279-15.52-11.838l-9.537,28.556L180.423,68.321z"/>
<path fill="#004587" d="M162.276,51.354c0,0,4.191,2.522,6.57,4.831l10.241-16.994l4.315-27.668
	c-5.302-2.277-10.784-4.212-16.421-5.777l0.721,26.933L162.276,51.354z"/>
<path fill="#004587" d="M135.585,41.582c0,0,4.442,0.867,7.24,2.122l3.529-18.019l-4.791-24.337C138.421,1.121,135.249,1,132.049,1
	c-2.187,0-4.359,0.056-6.519,0.162l8.865,22.463L135.585,41.582z"/>
<path fill="#004587" d="M108.131,40.412c0,0,4.066-0.582,6.841-0.337l-2.347-16.5L101.892,4.518
	c-4.904,1.163-9.703,2.598-14.376,4.299l14.244,16.556L108.131,40.412z"/>
<path fill="#004587" d="M84.035,45.875c0,0,3.328-1.781,5.798-2.444l-7.209-13.51L68.206,17.708
	c-4.05,2.284-7.967,4.771-11.733,7.458l17.332,9.723L84.035,45.875z"/>
<path fill="#004587" d="M60.98,59.339c0,0,2.34-2.611,4.288-3.977L54.681,45.86l-15.635-5.771c-3.091,3.153-6.023,6.462-8.781,9.916
	L48.559,53L60.98,59.339z"/>
<path fill="#004587" d="M40.323,79.793c0,0,2.404-2.56,3.61-4.287l-11.974-5.087l-15.046-0.067
	c-1.866,3.523-3.578,7.139-5.122,10.845l17.234-2.977L40.323,79.793z"/>
<path fill="#004587" d="M26.803,105.693c0,0,1.23-2.874,1.716-4.685l-11.573-0.61l-12.491,4.688
	c-0.716,3.512-1.282,7.08-1.709,10.688l14.123-7.953L26.803,105.693z"/>
<path fill="#004587" d="M22.931,130.509c0,0,0.174-3.121,0.008-4.991l-11.082,3.384l-9.878,8.46
	c0.176,3.785,0.516,7.531,1.008,11.228l11.335-12.684L22.931,130.509z"/>
<path fill="#004587" d="M25.165,159.379c0,0-0.627-2.876-1.248-4.534l-9.214,5.861L7.944,170.74
	c1.087,3.415,2.311,6.765,3.663,10.05l7.094-14.346L25.165,159.379z"/>
</svg>
